<mxfile host="app.diagrams.net" modified="2024-03-23T14:51:43.505Z" agent="Mozilla/5.0 (Windows NT 10.0; Win64; x64) AppleWebKit/537.36 (KHTML, like Gecko) Chrome/123.0.0.0 Safari/537.36" etag="kFZeZmP4VIVTJnre2YRX" version="24.0.9" type="github">
  <diagram name="第 1 页" id="UjjGB94WNIA5cwceNKkr">
    <mxGraphModel dx="1616" dy="432" grid="1" gridSize="10" guides="1" tooltips="1" connect="1" arrows="1" fold="1" page="1" pageScale="1" pageWidth="827" pageHeight="1169" math="0" shadow="0">
      <root>
        <mxCell id="0" />
        <mxCell id="1" parent="0" />
        <mxCell id="MgAOJkvai4jm7tvgy9-K-1" value="" style="rounded=0;whiteSpace=wrap;html=1;direction=south;" vertex="1" parent="1">
          <mxGeometry x="380" y="40" width="120" height="260" as="geometry" />
        </mxCell>
        <mxCell id="MgAOJkvai4jm7tvgy9-K-10" value="" style="endArrow=none;html=1;rounded=0;entryX=0;entryY=0.75;entryDx=0;entryDy=0;exitX=1;exitY=0.75;exitDx=0;exitDy=0;" edge="1" parent="1" source="MgAOJkvai4jm7tvgy9-K-1" target="MgAOJkvai4jm7tvgy9-K-1">
          <mxGeometry width="50" height="50" relative="1" as="geometry">
            <mxPoint x="420" y="230" as="sourcePoint" />
            <mxPoint x="470" y="180" as="targetPoint" />
          </mxGeometry>
        </mxCell>
        <mxCell id="MgAOJkvai4jm7tvgy9-K-11" value="" style="endArrow=none;html=1;rounded=0;entryX=0;entryY=0.5;entryDx=0;entryDy=0;exitX=1;exitY=0.5;exitDx=0;exitDy=0;" edge="1" parent="1" source="MgAOJkvai4jm7tvgy9-K-1" target="MgAOJkvai4jm7tvgy9-K-1">
          <mxGeometry width="50" height="50" relative="1" as="geometry">
            <mxPoint x="380" y="260" as="sourcePoint" />
            <mxPoint x="430" y="210" as="targetPoint" />
          </mxGeometry>
        </mxCell>
        <mxCell id="MgAOJkvai4jm7tvgy9-K-12" value="" style="endArrow=none;html=1;rounded=0;entryX=0;entryY=0.25;entryDx=0;entryDy=0;exitX=1;exitY=0.25;exitDx=0;exitDy=0;" edge="1" parent="1" source="MgAOJkvai4jm7tvgy9-K-1" target="MgAOJkvai4jm7tvgy9-K-1">
          <mxGeometry width="50" height="50" relative="1" as="geometry">
            <mxPoint x="380" y="260" as="sourcePoint" />
            <mxPoint x="430" y="210" as="targetPoint" />
          </mxGeometry>
        </mxCell>
        <mxCell id="MgAOJkvai4jm7tvgy9-K-13" value="" style="rounded=0;whiteSpace=wrap;html=1;direction=south;" vertex="1" parent="1">
          <mxGeometry x="500" y="40" width="120" height="260" as="geometry" />
        </mxCell>
        <mxCell id="MgAOJkvai4jm7tvgy9-K-14" value="" style="endArrow=none;html=1;rounded=0;entryX=0;entryY=0.75;entryDx=0;entryDy=0;exitX=1;exitY=0.75;exitDx=0;exitDy=0;" edge="1" parent="1" source="MgAOJkvai4jm7tvgy9-K-13" target="MgAOJkvai4jm7tvgy9-K-13">
          <mxGeometry width="50" height="50" relative="1" as="geometry">
            <mxPoint x="559.5" y="290" as="sourcePoint" />
            <mxPoint x="559.5" y="30" as="targetPoint" />
          </mxGeometry>
        </mxCell>
        <mxCell id="MgAOJkvai4jm7tvgy9-K-15" value="" style="endArrow=none;html=1;rounded=0;exitX=1;exitY=0.75;exitDx=0;exitDy=0;" edge="1" parent="1" target="MgAOJkvai4jm7tvgy9-K-13">
          <mxGeometry width="50" height="50" relative="1" as="geometry">
            <mxPoint x="530" y="300" as="sourcePoint" />
            <mxPoint x="530" y="40" as="targetPoint" />
          </mxGeometry>
        </mxCell>
        <mxCell id="MgAOJkvai4jm7tvgy9-K-16" value="" style="endArrow=none;html=1;rounded=0;entryX=0;entryY=0.75;entryDx=0;entryDy=0;exitX=1;exitY=0.75;exitDx=0;exitDy=0;" edge="1" parent="1">
          <mxGeometry width="50" height="50" relative="1" as="geometry">
            <mxPoint x="559.5" y="300" as="sourcePoint" />
            <mxPoint x="559.5" y="40" as="targetPoint" />
          </mxGeometry>
        </mxCell>
        <mxCell id="MgAOJkvai4jm7tvgy9-K-17" value="" style="endArrow=none;html=1;rounded=0;entryX=0;entryY=0.75;entryDx=0;entryDy=0;exitX=1;exitY=0.75;exitDx=0;exitDy=0;" edge="1" parent="1">
          <mxGeometry width="50" height="50" relative="1" as="geometry">
            <mxPoint x="590" y="300" as="sourcePoint" />
            <mxPoint x="590" y="40" as="targetPoint" />
          </mxGeometry>
        </mxCell>
        <mxCell id="MgAOJkvai4jm7tvgy9-K-18" value="0" style="text;html=1;align=center;verticalAlign=middle;resizable=0;points=[];autosize=1;strokeColor=none;fillColor=none;" vertex="1" parent="1">
          <mxGeometry x="350" y="10" width="30" height="30" as="geometry" />
        </mxCell>
        <mxCell id="MgAOJkvai4jm7tvgy9-K-19" value="7" style="text;html=1;align=center;verticalAlign=middle;resizable=0;points=[];autosize=1;strokeColor=none;fillColor=none;" vertex="1" parent="1">
          <mxGeometry x="620" y="10" width="30" height="30" as="geometry" />
        </mxCell>
        <mxCell id="MgAOJkvai4jm7tvgy9-K-20" value="" style="endArrow=none;html=1;rounded=0;entryX=0.25;entryY=0;entryDx=0;entryDy=0;exitX=0.25;exitY=1;exitDx=0;exitDy=0;" edge="1" parent="1" source="MgAOJkvai4jm7tvgy9-K-1" target="MgAOJkvai4jm7tvgy9-K-13">
          <mxGeometry width="50" height="50" relative="1" as="geometry">
            <mxPoint x="380" y="160" as="sourcePoint" />
            <mxPoint x="430" y="110" as="targetPoint" />
          </mxGeometry>
        </mxCell>
        <mxCell id="MgAOJkvai4jm7tvgy9-K-21" value="" style="endArrow=none;html=1;rounded=0;entryX=0.25;entryY=0;entryDx=0;entryDy=0;exitX=0.25;exitY=1;exitDx=0;exitDy=0;" edge="1" parent="1">
          <mxGeometry width="50" height="50" relative="1" as="geometry">
            <mxPoint x="380" y="105" as="sourcePoint" />
            <mxPoint x="620" y="105" as="targetPoint" />
          </mxGeometry>
        </mxCell>
        <mxCell id="MgAOJkvai4jm7tvgy9-K-22" value="" style="endArrow=none;html=1;rounded=0;entryX=0.25;entryY=0;entryDx=0;entryDy=0;exitX=0.25;exitY=1;exitDx=0;exitDy=0;" edge="1" parent="1">
          <mxGeometry width="50" height="50" relative="1" as="geometry">
            <mxPoint x="380" y="140" as="sourcePoint" />
            <mxPoint x="620" y="140" as="targetPoint" />
          </mxGeometry>
        </mxCell>
        <mxCell id="MgAOJkvai4jm7tvgy9-K-23" value="10" style="text;html=1;align=center;verticalAlign=middle;resizable=0;points=[];autosize=1;strokeColor=none;fillColor=none;" vertex="1" parent="1">
          <mxGeometry x="340" y="108" width="40" height="30" as="geometry" />
        </mxCell>
        <mxCell id="MgAOJkvai4jm7tvgy9-K-24" value="输出控制方式" style="text;html=1;align=center;verticalAlign=middle;resizable=0;points=[];autosize=1;strokeColor=#b85450;fillColor=#f8cecc;" vertex="1" parent="1">
          <mxGeometry x="80" y="340" width="100" height="30" as="geometry" />
        </mxCell>
        <mxCell id="MgAOJkvai4jm7tvgy9-K-28" value="1" style="text;html=1;align=center;verticalAlign=middle;whiteSpace=wrap;rounded=0;" vertex="1" parent="1">
          <mxGeometry x="580" y="108" width="60" height="30" as="geometry" />
        </mxCell>
        <mxCell id="MgAOJkvai4jm7tvgy9-K-29" value="" style="rounded=0;whiteSpace=wrap;html=1;direction=south;" vertex="1" parent="1">
          <mxGeometry x="100" y="40" width="120" height="260" as="geometry" />
        </mxCell>
        <mxCell id="MgAOJkvai4jm7tvgy9-K-30" value="" style="endArrow=none;html=1;rounded=0;entryX=0;entryY=0.75;entryDx=0;entryDy=0;exitX=1;exitY=0.75;exitDx=0;exitDy=0;" edge="1" parent="1" source="MgAOJkvai4jm7tvgy9-K-29" target="MgAOJkvai4jm7tvgy9-K-29">
          <mxGeometry width="50" height="50" relative="1" as="geometry">
            <mxPoint x="140" y="230" as="sourcePoint" />
            <mxPoint x="190" y="180" as="targetPoint" />
          </mxGeometry>
        </mxCell>
        <mxCell id="MgAOJkvai4jm7tvgy9-K-31" value="" style="endArrow=none;html=1;rounded=0;entryX=0;entryY=0.5;entryDx=0;entryDy=0;exitX=1;exitY=0.5;exitDx=0;exitDy=0;" edge="1" parent="1" source="MgAOJkvai4jm7tvgy9-K-29" target="MgAOJkvai4jm7tvgy9-K-29">
          <mxGeometry width="50" height="50" relative="1" as="geometry">
            <mxPoint x="100" y="260" as="sourcePoint" />
            <mxPoint x="150" y="210" as="targetPoint" />
          </mxGeometry>
        </mxCell>
        <mxCell id="MgAOJkvai4jm7tvgy9-K-32" value="" style="endArrow=none;html=1;rounded=0;entryX=0;entryY=0.25;entryDx=0;entryDy=0;exitX=1;exitY=0.25;exitDx=0;exitDy=0;" edge="1" parent="1" source="MgAOJkvai4jm7tvgy9-K-29" target="MgAOJkvai4jm7tvgy9-K-29">
          <mxGeometry width="50" height="50" relative="1" as="geometry">
            <mxPoint x="100" y="260" as="sourcePoint" />
            <mxPoint x="150" y="210" as="targetPoint" />
          </mxGeometry>
        </mxCell>
        <mxCell id="MgAOJkvai4jm7tvgy9-K-33" value="" style="rounded=0;whiteSpace=wrap;html=1;direction=south;" vertex="1" parent="1">
          <mxGeometry x="220" y="40" width="120" height="260" as="geometry" />
        </mxCell>
        <mxCell id="MgAOJkvai4jm7tvgy9-K-34" value="" style="endArrow=none;html=1;rounded=0;entryX=0;entryY=0.75;entryDx=0;entryDy=0;exitX=1;exitY=0.75;exitDx=0;exitDy=0;" edge="1" parent="1" source="MgAOJkvai4jm7tvgy9-K-33" target="MgAOJkvai4jm7tvgy9-K-33">
          <mxGeometry width="50" height="50" relative="1" as="geometry">
            <mxPoint x="279.5" y="290" as="sourcePoint" />
            <mxPoint x="279.5" y="30" as="targetPoint" />
          </mxGeometry>
        </mxCell>
        <mxCell id="MgAOJkvai4jm7tvgy9-K-35" value="" style="endArrow=none;html=1;rounded=0;exitX=1;exitY=0.75;exitDx=0;exitDy=0;" edge="1" parent="1" target="MgAOJkvai4jm7tvgy9-K-33">
          <mxGeometry width="50" height="50" relative="1" as="geometry">
            <mxPoint x="250" y="300" as="sourcePoint" />
            <mxPoint x="250" y="40" as="targetPoint" />
          </mxGeometry>
        </mxCell>
        <mxCell id="MgAOJkvai4jm7tvgy9-K-36" value="" style="endArrow=none;html=1;rounded=0;entryX=0;entryY=0.75;entryDx=0;entryDy=0;exitX=1;exitY=0.75;exitDx=0;exitDy=0;" edge="1" parent="1">
          <mxGeometry width="50" height="50" relative="1" as="geometry">
            <mxPoint x="279.5" y="300" as="sourcePoint" />
            <mxPoint x="279.5" y="40" as="targetPoint" />
          </mxGeometry>
        </mxCell>
        <mxCell id="MgAOJkvai4jm7tvgy9-K-37" value="" style="endArrow=none;html=1;rounded=0;entryX=0;entryY=0.75;entryDx=0;entryDy=0;exitX=1;exitY=0.75;exitDx=0;exitDy=0;" edge="1" parent="1">
          <mxGeometry width="50" height="50" relative="1" as="geometry">
            <mxPoint x="310" y="300" as="sourcePoint" />
            <mxPoint x="310" y="40" as="targetPoint" />
          </mxGeometry>
        </mxCell>
        <mxCell id="MgAOJkvai4jm7tvgy9-K-38" value="" style="endArrow=none;html=1;rounded=0;entryX=0.25;entryY=0;entryDx=0;entryDy=0;exitX=0.25;exitY=1;exitDx=0;exitDy=0;" edge="1" parent="1" source="MgAOJkvai4jm7tvgy9-K-29" target="MgAOJkvai4jm7tvgy9-K-33">
          <mxGeometry width="50" height="50" relative="1" as="geometry">
            <mxPoint x="100" y="160" as="sourcePoint" />
            <mxPoint x="150" y="110" as="targetPoint" />
          </mxGeometry>
        </mxCell>
        <mxCell id="MgAOJkvai4jm7tvgy9-K-39" value="" style="endArrow=none;html=1;rounded=0;entryX=0.25;entryY=0;entryDx=0;entryDy=0;exitX=0.25;exitY=1;exitDx=0;exitDy=0;" edge="1" parent="1">
          <mxGeometry width="50" height="50" relative="1" as="geometry">
            <mxPoint x="100" y="105" as="sourcePoint" />
            <mxPoint x="340" y="105" as="targetPoint" />
          </mxGeometry>
        </mxCell>
        <mxCell id="MgAOJkvai4jm7tvgy9-K-40" value="" style="endArrow=none;html=1;rounded=0;entryX=0.25;entryY=0;entryDx=0;entryDy=0;exitX=0.25;exitY=1;exitDx=0;exitDy=0;" edge="1" parent="1">
          <mxGeometry width="50" height="50" relative="1" as="geometry">
            <mxPoint x="100" y="140" as="sourcePoint" />
            <mxPoint x="340" y="140" as="targetPoint" />
          </mxGeometry>
        </mxCell>
        <mxCell id="MgAOJkvai4jm7tvgy9-K-41" value="10" style="text;html=1;align=center;verticalAlign=middle;resizable=0;points=[];autosize=1;strokeColor=none;fillColor=none;" vertex="1" parent="1">
          <mxGeometry x="60" y="108" width="40" height="30" as="geometry" />
        </mxCell>
        <mxCell id="MgAOJkvai4jm7tvgy9-K-42" value="7" style="text;html=1;align=center;verticalAlign=middle;whiteSpace=wrap;rounded=0;" vertex="1" parent="1">
          <mxGeometry x="110" y="108" width="60" height="30" as="geometry" />
        </mxCell>
        <mxCell id="MgAOJkvai4jm7tvgy9-K-43" value="输入控制方式" style="text;html=1;align=center;verticalAlign=middle;resizable=0;points=[];autosize=1;strokeColor=#b85450;fillColor=#f8cecc;" vertex="1" parent="1">
          <mxGeometry x="70" y="600" width="100" height="30" as="geometry" />
        </mxCell>
        <mxCell id="MgAOJkvai4jm7tvgy9-K-44" value="0" style="text;html=1;align=center;verticalAlign=middle;resizable=0;points=[];autosize=1;strokeColor=none;fillColor=none;" vertex="1" parent="1">
          <mxGeometry x="65" y="28" width="30" height="30" as="geometry" />
        </mxCell>
        <mxCell id="MgAOJkvai4jm7tvgy9-K-45" value="N-1" style="text;html=1;align=center;verticalAlign=middle;resizable=0;points=[];autosize=1;strokeColor=none;fillColor=none;" vertex="1" parent="1">
          <mxGeometry x="60" y="278" width="40" height="30" as="geometry" />
        </mxCell>
        <mxCell id="MgAOJkvai4jm7tvgy9-K-46" value="N-1" style="text;html=1;align=center;verticalAlign=middle;resizable=0;points=[];autosize=1;strokeColor=none;fillColor=none;" vertex="1" parent="1">
          <mxGeometry x="340" y="278" width="40" height="30" as="geometry" />
        </mxCell>
        <mxCell id="MgAOJkvai4jm7tvgy9-K-47" value="7" style="text;html=1;align=center;verticalAlign=middle;resizable=0;points=[];autosize=1;strokeColor=none;fillColor=none;" vertex="1" parent="1">
          <mxGeometry x="310" y="10" width="30" height="30" as="geometry" />
        </mxCell>
        <mxCell id="MgAOJkvai4jm7tvgy9-K-48" value="" style="rounded=0;whiteSpace=wrap;html=1;direction=west;" vertex="1" parent="1">
          <mxGeometry x="120" y="390" width="240" height="180" as="geometry" />
        </mxCell>
        <mxCell id="MgAOJkvai4jm7tvgy9-K-49" value="" style="endArrow=none;html=1;rounded=0;entryX=0.25;entryY=0;entryDx=0;entryDy=0;exitX=0.25;exitY=1;exitDx=0;exitDy=0;" edge="1" parent="1">
          <mxGeometry width="50" height="50" relative="1" as="geometry">
            <mxPoint x="120" y="450" as="sourcePoint" />
            <mxPoint x="360" y="450" as="targetPoint" />
          </mxGeometry>
        </mxCell>
        <mxCell id="MgAOJkvai4jm7tvgy9-K-50" value="" style="endArrow=none;html=1;rounded=0;entryX=0.25;entryY=0;entryDx=0;entryDy=0;exitX=0.25;exitY=1;exitDx=0;exitDy=0;" edge="1" parent="1">
          <mxGeometry width="50" height="50" relative="1" as="geometry">
            <mxPoint x="120" y="420" as="sourcePoint" />
            <mxPoint x="360" y="420" as="targetPoint" />
            <Array as="points">
              <mxPoint x="230" y="420" />
            </Array>
          </mxGeometry>
        </mxCell>
        <mxCell id="MgAOJkvai4jm7tvgy9-K-51" value="" style="endArrow=none;html=1;rounded=0;entryX=0.25;entryY=0;entryDx=0;entryDy=0;exitX=0.25;exitY=1;exitDx=0;exitDy=0;" edge="1" parent="1">
          <mxGeometry width="50" height="50" relative="1" as="geometry">
            <mxPoint x="120" y="480" as="sourcePoint" />
            <mxPoint x="360" y="480" as="targetPoint" />
          </mxGeometry>
        </mxCell>
        <mxCell id="MgAOJkvai4jm7tvgy9-K-52" value="SM" style="text;html=1;align=center;verticalAlign=middle;resizable=0;points=[];autosize=1;strokeColor=none;fillColor=none;" vertex="1" parent="1">
          <mxGeometry x="310" y="358" width="40" height="30" as="geometry" />
        </mxCell>
        <mxCell id="MgAOJkvai4jm7tvgy9-K-57" value="CM" style="text;html=1;align=center;verticalAlign=middle;resizable=0;points=[];autosize=1;strokeColor=none;fillColor=none;" vertex="1" parent="1">
          <mxGeometry x="600" y="358" width="40" height="30" as="geometry" />
        </mxCell>
        <mxCell id="MgAOJkvai4jm7tvgy9-K-60" value="" style="endArrow=none;html=1;rounded=0;entryX=0.25;entryY=0;entryDx=0;entryDy=0;exitX=0.25;exitY=1;exitDx=0;exitDy=0;" edge="1" parent="1">
          <mxGeometry width="50" height="50" relative="1" as="geometry">
            <mxPoint x="120" y="510" as="sourcePoint" />
            <mxPoint x="360" y="510" as="targetPoint" />
            <Array as="points">
              <mxPoint x="230" y="510" />
            </Array>
          </mxGeometry>
        </mxCell>
        <mxCell id="MgAOJkvai4jm7tvgy9-K-61" value="" style="endArrow=none;html=1;rounded=0;entryX=0.25;entryY=0;entryDx=0;entryDy=0;exitX=0.25;exitY=1;exitDx=0;exitDy=0;" edge="1" parent="1">
          <mxGeometry width="50" height="50" relative="1" as="geometry">
            <mxPoint x="120" y="540" as="sourcePoint" />
            <mxPoint x="360" y="540" as="targetPoint" />
            <Array as="points">
              <mxPoint x="230" y="540" />
            </Array>
          </mxGeometry>
        </mxCell>
        <mxCell id="MgAOJkvai4jm7tvgy9-K-62" value="0" style="text;html=1;align=center;verticalAlign=middle;resizable=0;points=[];autosize=1;strokeColor=none;fillColor=none;" vertex="1" parent="1">
          <mxGeometry x="80" y="388" width="30" height="30" as="geometry" />
        </mxCell>
        <mxCell id="MgAOJkvai4jm7tvgy9-K-63" value="127" style="text;html=1;align=center;verticalAlign=middle;resizable=0;points=[];autosize=1;strokeColor=none;fillColor=none;" vertex="1" parent="1">
          <mxGeometry x="75" y="540" width="40" height="30" as="geometry" />
        </mxCell>
        <mxCell id="MgAOJkvai4jm7tvgy9-K-64" value="" style="rounded=0;whiteSpace=wrap;html=1;direction=west;" vertex="1" parent="1">
          <mxGeometry x="410" y="390" width="240" height="180" as="geometry" />
        </mxCell>
        <mxCell id="MgAOJkvai4jm7tvgy9-K-65" value="" style="endArrow=none;html=1;rounded=0;entryX=0.25;entryY=0;entryDx=0;entryDy=0;exitX=0.25;exitY=1;exitDx=0;exitDy=0;" edge="1" parent="1">
          <mxGeometry width="50" height="50" relative="1" as="geometry">
            <mxPoint x="410" y="450" as="sourcePoint" />
            <mxPoint x="650" y="450" as="targetPoint" />
          </mxGeometry>
        </mxCell>
        <mxCell id="MgAOJkvai4jm7tvgy9-K-66" value="" style="endArrow=none;html=1;rounded=0;entryX=0.25;entryY=0;entryDx=0;entryDy=0;exitX=0.25;exitY=1;exitDx=0;exitDy=0;" edge="1" parent="1">
          <mxGeometry width="50" height="50" relative="1" as="geometry">
            <mxPoint x="410" y="420" as="sourcePoint" />
            <mxPoint x="650" y="420" as="targetPoint" />
            <Array as="points">
              <mxPoint x="520" y="420" />
            </Array>
          </mxGeometry>
        </mxCell>
        <mxCell id="MgAOJkvai4jm7tvgy9-K-67" value="" style="endArrow=none;html=1;rounded=0;entryX=0.25;entryY=0;entryDx=0;entryDy=0;exitX=0.25;exitY=1;exitDx=0;exitDy=0;" edge="1" parent="1">
          <mxGeometry width="50" height="50" relative="1" as="geometry">
            <mxPoint x="410" y="480" as="sourcePoint" />
            <mxPoint x="650" y="480" as="targetPoint" />
          </mxGeometry>
        </mxCell>
        <mxCell id="MgAOJkvai4jm7tvgy9-K-68" value="" style="endArrow=none;html=1;rounded=0;entryX=0.25;entryY=0;entryDx=0;entryDy=0;exitX=0.25;exitY=1;exitDx=0;exitDy=0;" edge="1" parent="1">
          <mxGeometry width="50" height="50" relative="1" as="geometry">
            <mxPoint x="410" y="510" as="sourcePoint" />
            <mxPoint x="650" y="510" as="targetPoint" />
            <Array as="points">
              <mxPoint x="520" y="510" />
            </Array>
          </mxGeometry>
        </mxCell>
        <mxCell id="MgAOJkvai4jm7tvgy9-K-69" value="" style="endArrow=none;html=1;rounded=0;entryX=0.25;entryY=0;entryDx=0;entryDy=0;exitX=0.25;exitY=1;exitDx=0;exitDy=0;" edge="1" parent="1">
          <mxGeometry width="50" height="50" relative="1" as="geometry">
            <mxPoint x="410" y="540" as="sourcePoint" />
            <mxPoint x="650" y="540" as="targetPoint" />
            <Array as="points">
              <mxPoint x="520" y="540" />
            </Array>
          </mxGeometry>
        </mxCell>
        <mxCell id="MgAOJkvai4jm7tvgy9-K-70" value="28" style="text;html=1;align=center;verticalAlign=middle;resizable=0;points=[];autosize=1;strokeColor=none;fillColor=none;" vertex="1" parent="1">
          <mxGeometry x="500" y="448" width="40" height="30" as="geometry" />
        </mxCell>
        <mxCell id="MgAOJkvai4jm7tvgy9-K-71" value="18" style="text;html=1;align=center;verticalAlign=middle;resizable=0;points=[];autosize=1;strokeColor=none;fillColor=none;" vertex="1" parent="1">
          <mxGeometry x="370" y="448" width="40" height="30" as="geometry" />
        </mxCell>
        <mxCell id="MgAOJkvai4jm7tvgy9-K-72" value="28&lt;span style=&quot;color: rgba(0, 0, 0, 0); font-family: monospace; font-size: 0px; text-align: start;&quot;&gt;%3CmxGraphModel%3E%3Croot%3E%3CmxCell%20id%3D%220%22%2F%3E%3CmxCell%20id%3D%221%22%20parent%3D%220%22%2F%3E%3CmxCell%20id%3D%222%22%20value%3D%2228%22%20style%3D%22text%3Bhtml%3D1%3Balign%3Dcenter%3BverticalAlign%3Dmiddle%3Bresizable%3D0%3Bpoints%3D%5B%5D%3Bautosize%3D1%3BstrokeColor%3Dnone%3BfillColor%3Dnone%3B%22%20vertex%3D%221%22%20parent%3D%221%22%3E%3CmxGeometry%20x%3D%22370%22%20y%3D%22478%22%20width%3D%2240%22%20height%3D%2230%22%20as%3D%22geometry%22%2F%3E%3C%2FmxCell%3E%3C%2Froot%3E%3C%2FmxGraphModel%3E&lt;/span&gt;" style="text;html=1;align=center;verticalAlign=middle;resizable=0;points=[];autosize=1;strokeColor=none;fillColor=none;" vertex="1" parent="1">
          <mxGeometry x="75" y="478" width="40" height="30" as="geometry" />
        </mxCell>
        <mxCell id="MgAOJkvai4jm7tvgy9-K-73" value="8bits input" style="text;html=1;align=center;verticalAlign=middle;resizable=0;points=[];autosize=1;strokeColor=none;fillColor=none;" vertex="1" parent="1">
          <mxGeometry x="200" y="478" width="80" height="30" as="geometry" />
        </mxCell>
        <mxCell id="MgAOJkvai4jm7tvgy9-K-74" value="S 输入控制方式" style="text;html=1;align=center;verticalAlign=middle;resizable=0;points=[];autosize=1;strokeColor=#b85450;fillColor=#f8cecc;" vertex="1" parent="1">
          <mxGeometry x="475" y="860" width="110" height="30" as="geometry" />
        </mxCell>
        <mxCell id="MgAOJkvai4jm7tvgy9-K-75" value="" style="rounded=0;whiteSpace=wrap;html=1;direction=west;" vertex="1" parent="1">
          <mxGeometry x="120" y="650" width="240" height="180" as="geometry" />
        </mxCell>
        <mxCell id="MgAOJkvai4jm7tvgy9-K-76" value="" style="endArrow=none;html=1;rounded=0;entryX=0.25;entryY=0;entryDx=0;entryDy=0;exitX=0.25;exitY=1;exitDx=0;exitDy=0;" edge="1" parent="1">
          <mxGeometry width="50" height="50" relative="1" as="geometry">
            <mxPoint x="120" y="710" as="sourcePoint" />
            <mxPoint x="360" y="710" as="targetPoint" />
          </mxGeometry>
        </mxCell>
        <mxCell id="MgAOJkvai4jm7tvgy9-K-77" value="" style="endArrow=none;html=1;rounded=0;entryX=0.25;entryY=0;entryDx=0;entryDy=0;exitX=0.25;exitY=1;exitDx=0;exitDy=0;" edge="1" parent="1">
          <mxGeometry width="50" height="50" relative="1" as="geometry">
            <mxPoint x="120" y="680" as="sourcePoint" />
            <mxPoint x="360" y="680" as="targetPoint" />
            <Array as="points">
              <mxPoint x="230" y="680" />
            </Array>
          </mxGeometry>
        </mxCell>
        <mxCell id="MgAOJkvai4jm7tvgy9-K-78" value="" style="endArrow=none;html=1;rounded=0;entryX=0.25;entryY=0;entryDx=0;entryDy=0;exitX=0.25;exitY=1;exitDx=0;exitDy=0;" edge="1" parent="1">
          <mxGeometry width="50" height="50" relative="1" as="geometry">
            <mxPoint x="120" y="740" as="sourcePoint" />
            <mxPoint x="360" y="740" as="targetPoint" />
          </mxGeometry>
        </mxCell>
        <mxCell id="MgAOJkvai4jm7tvgy9-K-79" value="SM" style="text;html=1;align=center;verticalAlign=middle;resizable=0;points=[];autosize=1;strokeColor=none;fillColor=none;" vertex="1" parent="1">
          <mxGeometry x="310" y="618" width="40" height="30" as="geometry" />
        </mxCell>
        <mxCell id="MgAOJkvai4jm7tvgy9-K-80" value="CM" style="text;html=1;align=center;verticalAlign=middle;resizable=0;points=[];autosize=1;strokeColor=none;fillColor=none;" vertex="1" parent="1">
          <mxGeometry x="600" y="618" width="40" height="30" as="geometry" />
        </mxCell>
        <mxCell id="MgAOJkvai4jm7tvgy9-K-81" value="" style="endArrow=none;html=1;rounded=0;entryX=0.25;entryY=0;entryDx=0;entryDy=0;exitX=0.25;exitY=1;exitDx=0;exitDy=0;" edge="1" parent="1">
          <mxGeometry width="50" height="50" relative="1" as="geometry">
            <mxPoint x="120" y="770" as="sourcePoint" />
            <mxPoint x="360" y="770" as="targetPoint" />
            <Array as="points">
              <mxPoint x="230" y="770" />
            </Array>
          </mxGeometry>
        </mxCell>
        <mxCell id="MgAOJkvai4jm7tvgy9-K-82" value="" style="endArrow=none;html=1;rounded=0;entryX=0.25;entryY=0;entryDx=0;entryDy=0;exitX=0.25;exitY=1;exitDx=0;exitDy=0;" edge="1" parent="1">
          <mxGeometry width="50" height="50" relative="1" as="geometry">
            <mxPoint x="120" y="800" as="sourcePoint" />
            <mxPoint x="360" y="800" as="targetPoint" />
            <Array as="points">
              <mxPoint x="230" y="800" />
            </Array>
          </mxGeometry>
        </mxCell>
        <mxCell id="MgAOJkvai4jm7tvgy9-K-83" value="0" style="text;html=1;align=center;verticalAlign=middle;resizable=0;points=[];autosize=1;strokeColor=none;fillColor=none;" vertex="1" parent="1">
          <mxGeometry x="80" y="648" width="30" height="30" as="geometry" />
        </mxCell>
        <mxCell id="MgAOJkvai4jm7tvgy9-K-84" value="127" style="text;html=1;align=center;verticalAlign=middle;resizable=0;points=[];autosize=1;strokeColor=none;fillColor=none;" vertex="1" parent="1">
          <mxGeometry x="75" y="800" width="40" height="30" as="geometry" />
        </mxCell>
        <mxCell id="MgAOJkvai4jm7tvgy9-K-85" value="" style="rounded=0;whiteSpace=wrap;html=1;direction=west;" vertex="1" parent="1">
          <mxGeometry x="410" y="650" width="240" height="180" as="geometry" />
        </mxCell>
        <mxCell id="MgAOJkvai4jm7tvgy9-K-86" value="" style="endArrow=none;html=1;rounded=0;entryX=0.25;entryY=0;entryDx=0;entryDy=0;exitX=0.25;exitY=1;exitDx=0;exitDy=0;" edge="1" parent="1">
          <mxGeometry width="50" height="50" relative="1" as="geometry">
            <mxPoint x="410" y="710" as="sourcePoint" />
            <mxPoint x="650" y="710" as="targetPoint" />
          </mxGeometry>
        </mxCell>
        <mxCell id="MgAOJkvai4jm7tvgy9-K-87" value="" style="endArrow=none;html=1;rounded=0;entryX=0.25;entryY=0;entryDx=0;entryDy=0;exitX=0.25;exitY=1;exitDx=0;exitDy=0;" edge="1" parent="1">
          <mxGeometry width="50" height="50" relative="1" as="geometry">
            <mxPoint x="410" y="680" as="sourcePoint" />
            <mxPoint x="650" y="680" as="targetPoint" />
            <Array as="points">
              <mxPoint x="520" y="680" />
            </Array>
          </mxGeometry>
        </mxCell>
        <mxCell id="MgAOJkvai4jm7tvgy9-K-88" value="" style="endArrow=none;html=1;rounded=0;entryX=0.25;entryY=0;entryDx=0;entryDy=0;exitX=0.25;exitY=1;exitDx=0;exitDy=0;" edge="1" parent="1">
          <mxGeometry width="50" height="50" relative="1" as="geometry">
            <mxPoint x="410" y="740" as="sourcePoint" />
            <mxPoint x="650" y="740" as="targetPoint" />
          </mxGeometry>
        </mxCell>
        <mxCell id="MgAOJkvai4jm7tvgy9-K-89" value="" style="endArrow=none;html=1;rounded=0;entryX=0.25;entryY=0;entryDx=0;entryDy=0;exitX=0.25;exitY=1;exitDx=0;exitDy=0;" edge="1" parent="1">
          <mxGeometry width="50" height="50" relative="1" as="geometry">
            <mxPoint x="410" y="770" as="sourcePoint" />
            <mxPoint x="650" y="770" as="targetPoint" />
            <Array as="points">
              <mxPoint x="520" y="770" />
            </Array>
          </mxGeometry>
        </mxCell>
        <mxCell id="MgAOJkvai4jm7tvgy9-K-90" value="" style="endArrow=none;html=1;rounded=0;entryX=0.25;entryY=0;entryDx=0;entryDy=0;exitX=0.25;exitY=1;exitDx=0;exitDy=0;" edge="1" parent="1">
          <mxGeometry width="50" height="50" relative="1" as="geometry">
            <mxPoint x="410" y="800" as="sourcePoint" />
            <mxPoint x="650" y="800" as="targetPoint" />
            <Array as="points">
              <mxPoint x="520" y="800" />
            </Array>
          </mxGeometry>
        </mxCell>
        <mxCell id="MgAOJkvai4jm7tvgy9-K-91" value="28" style="text;html=1;align=center;verticalAlign=middle;resizable=0;points=[];autosize=1;strokeColor=none;fillColor=none;" vertex="1" parent="1">
          <mxGeometry x="370" y="738" width="40" height="30" as="geometry" />
        </mxCell>
        <mxCell id="MgAOJkvai4jm7tvgy9-K-92" value="18" style="text;html=1;align=center;verticalAlign=middle;resizable=0;points=[];autosize=1;strokeColor=none;fillColor=none;" vertex="1" parent="1">
          <mxGeometry x="500" y="738" width="40" height="30" as="geometry" />
        </mxCell>
        <mxCell id="MgAOJkvai4jm7tvgy9-K-93" value="18" style="text;html=1;align=center;verticalAlign=middle;resizable=0;points=[];autosize=1;strokeColor=none;fillColor=none;" vertex="1" parent="1">
          <mxGeometry x="75" y="708" width="40" height="30" as="geometry" />
        </mxCell>
        <mxCell id="MgAOJkvai4jm7tvgy9-K-94" value="8bits input" style="text;html=1;align=center;verticalAlign=middle;resizable=0;points=[];autosize=1;strokeColor=none;fillColor=none;" vertex="1" parent="1">
          <mxGeometry x="190" y="708" width="80" height="30" as="geometry" />
        </mxCell>
        <mxCell id="MgAOJkvai4jm7tvgy9-K-95" value="T 输出控制方式" style="text;html=1;align=center;verticalAlign=middle;resizable=0;points=[];autosize=1;strokeColor=#b85450;fillColor=#f8cecc;" vertex="1" parent="1">
          <mxGeometry x="115" y="860" width="110" height="30" as="geometry" />
        </mxCell>
        <mxCell id="MgAOJkvai4jm7tvgy9-K-96" value="T 输入控制方式" style="text;html=1;align=center;verticalAlign=middle;resizable=0;points=[];autosize=1;strokeColor=#b85450;fillColor=#f8cecc;" vertex="1" parent="1">
          <mxGeometry x="865" y="860" width="110" height="30" as="geometry" />
        </mxCell>
        <mxCell id="MgAOJkvai4jm7tvgy9-K-101" value="SM1" style="text;html=1;align=center;verticalAlign=middle;resizable=0;points=[];autosize=1;strokeColor=none;fillColor=none;" vertex="1" parent="1">
          <mxGeometry x="80" y="980" width="50" height="30" as="geometry" />
        </mxCell>
        <mxCell id="MgAOJkvai4jm7tvgy9-K-104" value="0" style="text;html=1;align=center;verticalAlign=middle;resizable=0;points=[];autosize=1;strokeColor=none;fillColor=none;" vertex="1" parent="1">
          <mxGeometry x="2.5" y="1010" width="30" height="30" as="geometry" />
        </mxCell>
        <mxCell id="MgAOJkvai4jm7tvgy9-K-105" value="512" style="text;html=1;align=center;verticalAlign=middle;resizable=0;points=[];autosize=1;strokeColor=none;fillColor=none;" vertex="1" parent="1">
          <mxGeometry y="1140" width="40" height="30" as="geometry" />
        </mxCell>
        <mxCell id="MgAOJkvai4jm7tvgy9-K-106" value="8" style="text;html=1;align=center;verticalAlign=middle;resizable=0;points=[];autosize=1;strokeColor=none;fillColor=none;" vertex="1" parent="1">
          <mxGeometry x="2.5" y="1070" width="30" height="30" as="geometry" />
        </mxCell>
        <mxCell id="MgAOJkvai4jm7tvgy9-K-112" value="8bits" style="rounded=0;whiteSpace=wrap;html=1;direction=south;" vertex="1" parent="1">
          <mxGeometry x="40" y="1010" width="70" height="160" as="geometry" />
        </mxCell>
        <mxCell id="MgAOJkvai4jm7tvgy9-K-113" value="" style="endArrow=none;html=1;rounded=0;entryX=0.375;entryY=-0.005;entryDx=0;entryDy=0;entryPerimeter=0;" edge="1" parent="1" target="MgAOJkvai4jm7tvgy9-K-112">
          <mxGeometry width="50" height="50" relative="1" as="geometry">
            <mxPoint x="40" y="1070" as="sourcePoint" />
            <mxPoint x="90" y="1020" as="targetPoint" />
          </mxGeometry>
        </mxCell>
        <mxCell id="MgAOJkvai4jm7tvgy9-K-114" value="" style="endArrow=none;html=1;rounded=0;entryX=0.375;entryY=-0.005;entryDx=0;entryDy=0;entryPerimeter=0;" edge="1" parent="1">
          <mxGeometry width="50" height="50" relative="1" as="geometry">
            <mxPoint x="40" y="1100" as="sourcePoint" />
            <mxPoint x="110" y="1100" as="targetPoint" />
          </mxGeometry>
        </mxCell>
        <mxCell id="MgAOJkvai4jm7tvgy9-K-116" value="" style="endArrow=none;html=1;rounded=0;" edge="1" parent="1">
          <mxGeometry width="50" height="50" relative="1" as="geometry">
            <mxPoint x="-40" y="1050" as="sourcePoint" />
            <mxPoint x="40" y="1050" as="targetPoint" />
          </mxGeometry>
        </mxCell>
        <mxCell id="MgAOJkvai4jm7tvgy9-K-117" value="PCM1" style="text;html=1;align=center;verticalAlign=middle;resizable=0;points=[];autosize=1;strokeColor=none;fillColor=none;" vertex="1" parent="1">
          <mxGeometry x="-80" y="1060" width="60" height="30" as="geometry" />
        </mxCell>
        <mxCell id="MgAOJkvai4jm7tvgy9-K-118" value="SM7" style="text;html=1;align=center;verticalAlign=middle;resizable=0;points=[];autosize=1;strokeColor=none;fillColor=none;" vertex="1" parent="1">
          <mxGeometry x="80" y="1360" width="50" height="30" as="geometry" />
        </mxCell>
        <mxCell id="MgAOJkvai4jm7tvgy9-K-119" value="0" style="text;html=1;align=center;verticalAlign=middle;resizable=0;points=[];autosize=1;strokeColor=none;fillColor=none;" vertex="1" parent="1">
          <mxGeometry x="2.5" y="1390" width="30" height="30" as="geometry" />
        </mxCell>
        <mxCell id="MgAOJkvai4jm7tvgy9-K-120" value="511" style="text;html=1;align=center;verticalAlign=middle;resizable=0;points=[];autosize=1;strokeColor=none;fillColor=none;" vertex="1" parent="1">
          <mxGeometry x="-2.5" y="1542" width="40" height="30" as="geometry" />
        </mxCell>
        <mxCell id="MgAOJkvai4jm7tvgy9-K-121" value="31" style="text;html=1;align=center;verticalAlign=middle;resizable=0;points=[];autosize=1;strokeColor=none;fillColor=none;" vertex="1" parent="1">
          <mxGeometry x="-2.5" y="1450" width="40" height="30" as="geometry" />
        </mxCell>
        <mxCell id="MgAOJkvai4jm7tvgy9-K-122" value="8bits" style="rounded=0;whiteSpace=wrap;html=1;direction=south;" vertex="1" parent="1">
          <mxGeometry x="40" y="1390" width="70" height="160" as="geometry" />
        </mxCell>
        <mxCell id="MgAOJkvai4jm7tvgy9-K-123" value="" style="endArrow=none;html=1;rounded=0;entryX=0.375;entryY=-0.005;entryDx=0;entryDy=0;entryPerimeter=0;" edge="1" parent="1" target="MgAOJkvai4jm7tvgy9-K-122">
          <mxGeometry width="50" height="50" relative="1" as="geometry">
            <mxPoint x="40" y="1450" as="sourcePoint" />
            <mxPoint x="90" y="1400" as="targetPoint" />
          </mxGeometry>
        </mxCell>
        <mxCell id="MgAOJkvai4jm7tvgy9-K-124" value="" style="endArrow=none;html=1;rounded=0;entryX=0.375;entryY=-0.005;entryDx=0;entryDy=0;entryPerimeter=0;" edge="1" parent="1">
          <mxGeometry width="50" height="50" relative="1" as="geometry">
            <mxPoint x="40" y="1480" as="sourcePoint" />
            <mxPoint x="110" y="1480" as="targetPoint" />
          </mxGeometry>
        </mxCell>
        <mxCell id="MgAOJkvai4jm7tvgy9-K-125" value="" style="endArrow=none;html=1;rounded=0;" edge="1" parent="1">
          <mxGeometry width="50" height="50" relative="1" as="geometry">
            <mxPoint x="-40" y="1430" as="sourcePoint" />
            <mxPoint x="40" y="1430" as="targetPoint" />
          </mxGeometry>
        </mxCell>
        <mxCell id="MgAOJkvai4jm7tvgy9-K-126" value="PCM7" style="text;html=1;align=center;verticalAlign=middle;resizable=0;points=[];autosize=1;strokeColor=none;fillColor=none;" vertex="1" parent="1">
          <mxGeometry x="-80" y="1440" width="60" height="30" as="geometry" />
        </mxCell>
        <mxCell id="MgAOJkvai4jm7tvgy9-K-127" value="0" style="text;html=1;align=center;verticalAlign=middle;resizable=0;points=[];autosize=1;strokeColor=none;fillColor=none;" vertex="1" parent="1">
          <mxGeometry x="162.15" y="950" width="30" height="30" as="geometry" />
        </mxCell>
        <mxCell id="MgAOJkvai4jm7tvgy9-K-128" value="512" style="text;html=1;align=center;verticalAlign=middle;resizable=0;points=[];autosize=1;strokeColor=none;fillColor=none;" vertex="1" parent="1">
          <mxGeometry x="152.15" y="1080" width="40" height="30" as="geometry" />
        </mxCell>
        <mxCell id="MgAOJkvai4jm7tvgy9-K-129" value="15" style="text;html=1;align=center;verticalAlign=middle;resizable=0;points=[];autosize=1;strokeColor=none;fillColor=none;" vertex="1" parent="1">
          <mxGeometry x="157.15" y="1010" width="40" height="30" as="geometry" />
        </mxCell>
        <mxCell id="MgAOJkvai4jm7tvgy9-K-130" value="8" style="rounded=0;whiteSpace=wrap;html=1;direction=south;" vertex="1" parent="1">
          <mxGeometry x="199.65" y="950" width="70" height="160" as="geometry" />
        </mxCell>
        <mxCell id="MgAOJkvai4jm7tvgy9-K-131" value="" style="endArrow=none;html=1;rounded=0;entryX=0.375;entryY=-0.005;entryDx=0;entryDy=0;entryPerimeter=0;" edge="1" parent="1" target="MgAOJkvai4jm7tvgy9-K-130">
          <mxGeometry width="50" height="50" relative="1" as="geometry">
            <mxPoint x="199.65" y="1010" as="sourcePoint" />
            <mxPoint x="249.65" y="960" as="targetPoint" />
          </mxGeometry>
        </mxCell>
        <mxCell id="MgAOJkvai4jm7tvgy9-K-132" value="" style="endArrow=none;html=1;rounded=0;entryX=0.375;entryY=-0.005;entryDx=0;entryDy=0;entryPerimeter=0;" edge="1" parent="1">
          <mxGeometry width="50" height="50" relative="1" as="geometry">
            <mxPoint x="199.65" y="1040" as="sourcePoint" />
            <mxPoint x="269.65" y="1040" as="targetPoint" />
          </mxGeometry>
        </mxCell>
        <mxCell id="MgAOJkvai4jm7tvgy9-K-134" value="CM1" style="text;html=1;align=center;verticalAlign=middle;resizable=0;points=[];autosize=1;strokeColor=none;fillColor=none;" vertex="1" parent="1">
          <mxGeometry x="260" y="920" width="50" height="30" as="geometry" />
        </mxCell>
        <mxCell id="MgAOJkvai4jm7tvgy9-K-135" value="" style="endArrow=classic;html=1;rounded=0;exitX=0;exitY=0.5;exitDx=0;exitDy=0;entryX=0;entryY=0.5;entryDx=0;entryDy=0;" edge="1" parent="1" source="MgAOJkvai4jm7tvgy9-K-130" target="MgAOJkvai4jm7tvgy9-K-112">
          <mxGeometry width="50" height="50" relative="1" as="geometry">
            <mxPoint x="410" y="1110" as="sourcePoint" />
            <mxPoint x="460" y="1060" as="targetPoint" />
            <Array as="points">
              <mxPoint x="235" y="930" />
              <mxPoint x="75" y="930" />
            </Array>
          </mxGeometry>
        </mxCell>
        <mxCell id="MgAOJkvai4jm7tvgy9-K-138" value="" style="endArrow=classic;html=1;rounded=0;exitX=0;exitY=0.5;exitDx=0;exitDy=0;entryX=0;entryY=0.5;entryDx=0;entryDy=0;" edge="1" parent="1">
          <mxGeometry width="50" height="50" relative="1" as="geometry">
            <mxPoint x="235" y="1330" as="sourcePoint" />
            <mxPoint x="75" y="1390" as="targetPoint" />
            <Array as="points">
              <mxPoint x="235" y="1310" />
              <mxPoint x="75" y="1310" />
            </Array>
          </mxGeometry>
        </mxCell>
        <mxCell id="MgAOJkvai4jm7tvgy9-K-139" value="0" style="text;html=1;align=center;verticalAlign=middle;resizable=0;points=[];autosize=1;strokeColor=none;fillColor=none;" vertex="1" parent="1">
          <mxGeometry x="161.8" y="1330" width="30" height="30" as="geometry" />
        </mxCell>
        <mxCell id="MgAOJkvai4jm7tvgy9-K-140" value="512" style="text;html=1;align=center;verticalAlign=middle;resizable=0;points=[];autosize=1;strokeColor=none;fillColor=none;" vertex="1" parent="1">
          <mxGeometry x="151.8" y="1460" width="40" height="30" as="geometry" />
        </mxCell>
        <mxCell id="MgAOJkvai4jm7tvgy9-K-141" value="271" style="text;html=1;align=center;verticalAlign=middle;resizable=0;points=[];autosize=1;strokeColor=none;fillColor=none;" vertex="1" parent="1">
          <mxGeometry x="159.3" y="1420" width="40" height="30" as="geometry" />
        </mxCell>
        <mxCell id="MgAOJkvai4jm7tvgy9-K-142" value="" style="rounded=0;whiteSpace=wrap;html=1;direction=south;" vertex="1" parent="1">
          <mxGeometry x="199.3" y="1330" width="70" height="160" as="geometry" />
        </mxCell>
        <mxCell id="MgAOJkvai4jm7tvgy9-K-143" value="" style="endArrow=none;html=1;rounded=0;entryX=0.375;entryY=-0.005;entryDx=0;entryDy=0;entryPerimeter=0;" edge="1" parent="1">
          <mxGeometry width="50" height="50" relative="1" as="geometry">
            <mxPoint x="200" y="1450" as="sourcePoint" />
            <mxPoint x="270.3499999999996" y="1450" as="targetPoint" />
          </mxGeometry>
        </mxCell>
        <mxCell id="MgAOJkvai4jm7tvgy9-K-144" value="" style="endArrow=none;html=1;rounded=0;entryX=0.375;entryY=-0.005;entryDx=0;entryDy=0;entryPerimeter=0;" edge="1" parent="1">
          <mxGeometry width="50" height="50" relative="1" as="geometry">
            <mxPoint x="199.3" y="1420" as="sourcePoint" />
            <mxPoint x="269.29999999999995" y="1420" as="targetPoint" />
          </mxGeometry>
        </mxCell>
        <mxCell id="MgAOJkvai4jm7tvgy9-K-145" value="CM7" style="text;html=1;align=center;verticalAlign=middle;resizable=0;points=[];autosize=1;strokeColor=none;fillColor=none;" vertex="1" parent="1">
          <mxGeometry x="255" y="1290" width="50" height="30" as="geometry" />
        </mxCell>
        <mxCell id="MgAOJkvai4jm7tvgy9-K-146" value="31" style="text;html=1;align=center;verticalAlign=middle;whiteSpace=wrap;rounded=0;" vertex="1" parent="1">
          <mxGeometry x="204.3" y="1420" width="60" height="30" as="geometry" />
        </mxCell>
        <mxCell id="MgAOJkvai4jm7tvgy9-K-148" value="" style="rounded=0;whiteSpace=wrap;html=1;direction=south;" vertex="1" parent="1">
          <mxGeometry x="420" y="1346" width="120" height="260" as="geometry" />
        </mxCell>
        <mxCell id="MgAOJkvai4jm7tvgy9-K-149" value="" style="endArrow=none;html=1;rounded=0;entryX=0;entryY=0.75;entryDx=0;entryDy=0;exitX=1;exitY=0.75;exitDx=0;exitDy=0;" edge="1" parent="1" source="MgAOJkvai4jm7tvgy9-K-148" target="MgAOJkvai4jm7tvgy9-K-148">
          <mxGeometry width="50" height="50" relative="1" as="geometry">
            <mxPoint x="460" y="1536" as="sourcePoint" />
            <mxPoint x="510" y="1486" as="targetPoint" />
          </mxGeometry>
        </mxCell>
        <mxCell id="MgAOJkvai4jm7tvgy9-K-150" value="" style="endArrow=none;html=1;rounded=0;entryX=0;entryY=0.5;entryDx=0;entryDy=0;exitX=1;exitY=0.5;exitDx=0;exitDy=0;" edge="1" parent="1" source="MgAOJkvai4jm7tvgy9-K-148" target="MgAOJkvai4jm7tvgy9-K-148">
          <mxGeometry width="50" height="50" relative="1" as="geometry">
            <mxPoint x="420" y="1566" as="sourcePoint" />
            <mxPoint x="470" y="1516" as="targetPoint" />
          </mxGeometry>
        </mxCell>
        <mxCell id="MgAOJkvai4jm7tvgy9-K-151" value="" style="endArrow=none;html=1;rounded=0;entryX=0;entryY=0.25;entryDx=0;entryDy=0;exitX=1;exitY=0.25;exitDx=0;exitDy=0;" edge="1" parent="1" source="MgAOJkvai4jm7tvgy9-K-148" target="MgAOJkvai4jm7tvgy9-K-148">
          <mxGeometry width="50" height="50" relative="1" as="geometry">
            <mxPoint x="420" y="1566" as="sourcePoint" />
            <mxPoint x="470" y="1516" as="targetPoint" />
          </mxGeometry>
        </mxCell>
        <mxCell id="MgAOJkvai4jm7tvgy9-K-152" value="" style="rounded=0;whiteSpace=wrap;html=1;direction=south;" vertex="1" parent="1">
          <mxGeometry x="540" y="1346" width="120" height="260" as="geometry" />
        </mxCell>
        <mxCell id="MgAOJkvai4jm7tvgy9-K-153" value="" style="endArrow=none;html=1;rounded=0;entryX=0;entryY=0.75;entryDx=0;entryDy=0;exitX=1;exitY=0.75;exitDx=0;exitDy=0;" edge="1" parent="1" source="MgAOJkvai4jm7tvgy9-K-152" target="MgAOJkvai4jm7tvgy9-K-152">
          <mxGeometry width="50" height="50" relative="1" as="geometry">
            <mxPoint x="599.5" y="1596" as="sourcePoint" />
            <mxPoint x="599.5" y="1336" as="targetPoint" />
          </mxGeometry>
        </mxCell>
        <mxCell id="MgAOJkvai4jm7tvgy9-K-154" value="" style="endArrow=none;html=1;rounded=0;exitX=1;exitY=0.75;exitDx=0;exitDy=0;" edge="1" parent="1" target="MgAOJkvai4jm7tvgy9-K-152">
          <mxGeometry width="50" height="50" relative="1" as="geometry">
            <mxPoint x="570" y="1606" as="sourcePoint" />
            <mxPoint x="570" y="1346" as="targetPoint" />
          </mxGeometry>
        </mxCell>
        <mxCell id="MgAOJkvai4jm7tvgy9-K-155" value="" style="endArrow=none;html=1;rounded=0;entryX=0;entryY=0.75;entryDx=0;entryDy=0;exitX=1;exitY=0.75;exitDx=0;exitDy=0;" edge="1" parent="1">
          <mxGeometry width="50" height="50" relative="1" as="geometry">
            <mxPoint x="599.5" y="1606" as="sourcePoint" />
            <mxPoint x="599.5" y="1346" as="targetPoint" />
          </mxGeometry>
        </mxCell>
        <mxCell id="MgAOJkvai4jm7tvgy9-K-156" value="" style="endArrow=none;html=1;rounded=0;entryX=0;entryY=0.75;entryDx=0;entryDy=0;exitX=1;exitY=0.75;exitDx=0;exitDy=0;" edge="1" parent="1">
          <mxGeometry width="50" height="50" relative="1" as="geometry">
            <mxPoint x="630" y="1606" as="sourcePoint" />
            <mxPoint x="630" y="1346" as="targetPoint" />
          </mxGeometry>
        </mxCell>
        <mxCell id="MgAOJkvai4jm7tvgy9-K-157" value="" style="endArrow=none;html=1;rounded=0;entryX=0.25;entryY=0;entryDx=0;entryDy=0;exitX=0.25;exitY=1;exitDx=0;exitDy=0;" edge="1" parent="1" source="MgAOJkvai4jm7tvgy9-K-148" target="MgAOJkvai4jm7tvgy9-K-152">
          <mxGeometry width="50" height="50" relative="1" as="geometry">
            <mxPoint x="420" y="1466" as="sourcePoint" />
            <mxPoint x="470" y="1416" as="targetPoint" />
          </mxGeometry>
        </mxCell>
        <mxCell id="MgAOJkvai4jm7tvgy9-K-158" value="" style="endArrow=none;html=1;rounded=0;entryX=0.25;entryY=0;entryDx=0;entryDy=0;exitX=0.25;exitY=1;exitDx=0;exitDy=0;" edge="1" parent="1">
          <mxGeometry width="50" height="50" relative="1" as="geometry">
            <mxPoint x="420" y="1411" as="sourcePoint" />
            <mxPoint x="660" y="1411" as="targetPoint" />
          </mxGeometry>
        </mxCell>
        <mxCell id="MgAOJkvai4jm7tvgy9-K-159" value="" style="endArrow=none;html=1;rounded=0;entryX=0.25;entryY=0;entryDx=0;entryDy=0;exitX=0.25;exitY=1;exitDx=0;exitDy=0;" edge="1" parent="1">
          <mxGeometry width="50" height="50" relative="1" as="geometry">
            <mxPoint x="420" y="1446" as="sourcePoint" />
            <mxPoint x="660" y="1446" as="targetPoint" />
          </mxGeometry>
        </mxCell>
        <mxCell id="MgAOJkvai4jm7tvgy9-K-160" value="15" style="text;html=1;align=center;verticalAlign=middle;resizable=0;points=[];autosize=1;strokeColor=none;fillColor=none;" vertex="1" parent="1">
          <mxGeometry x="380" y="1414" width="40" height="30" as="geometry" />
        </mxCell>
        <mxCell id="MgAOJkvai4jm7tvgy9-K-161" value="7" style="text;html=1;align=center;verticalAlign=middle;whiteSpace=wrap;rounded=0;" vertex="1" parent="1">
          <mxGeometry x="430" y="1414" width="60" height="30" as="geometry" />
        </mxCell>
        <mxCell id="MgAOJkvai4jm7tvgy9-K-162" value="0" style="text;html=1;align=center;verticalAlign=middle;resizable=0;points=[];autosize=1;strokeColor=none;fillColor=none;" vertex="1" parent="1">
          <mxGeometry x="399" y="1316" width="30" height="30" as="geometry" />
        </mxCell>
        <mxCell id="MgAOJkvai4jm7tvgy9-K-163" value="511" style="text;html=1;align=center;verticalAlign=middle;resizable=0;points=[];autosize=1;strokeColor=none;fillColor=none;" vertex="1" parent="1">
          <mxGeometry x="380" y="1584" width="40" height="30" as="geometry" />
        </mxCell>
        <mxCell id="MgAOJkvai4jm7tvgy9-K-164" value="7" style="text;html=1;align=center;verticalAlign=middle;resizable=0;points=[];autosize=1;strokeColor=none;fillColor=none;" vertex="1" parent="1">
          <mxGeometry x="630" y="1316" width="30" height="30" as="geometry" />
        </mxCell>
        <mxCell id="MgAOJkvai4jm7tvgy9-K-165" value="" style="endArrow=none;html=1;rounded=0;entryX=0.25;entryY=0;entryDx=0;entryDy=0;exitX=0.25;exitY=1;exitDx=0;exitDy=0;" edge="1" parent="1">
          <mxGeometry width="50" height="50" relative="1" as="geometry">
            <mxPoint x="420" y="1522.82" as="sourcePoint" />
            <mxPoint x="660" y="1522.82" as="targetPoint" />
          </mxGeometry>
        </mxCell>
        <mxCell id="MgAOJkvai4jm7tvgy9-K-166" value="" style="endArrow=none;html=1;rounded=0;entryX=0.25;entryY=0;entryDx=0;entryDy=0;exitX=0.25;exitY=1;exitDx=0;exitDy=0;" edge="1" parent="1">
          <mxGeometry width="50" height="50" relative="1" as="geometry">
            <mxPoint x="420" y="1554" as="sourcePoint" />
            <mxPoint x="660" y="1554" as="targetPoint" />
          </mxGeometry>
        </mxCell>
        <mxCell id="MgAOJkvai4jm7tvgy9-K-167" value="271" style="text;html=1;align=center;verticalAlign=middle;resizable=0;points=[];autosize=1;strokeColor=none;fillColor=none;" vertex="1" parent="1">
          <mxGeometry x="380" y="1524" width="40" height="30" as="geometry" />
        </mxCell>
        <mxCell id="MgAOJkvai4jm7tvgy9-K-170" value="1" style="text;html=1;align=center;verticalAlign=middle;whiteSpace=wrap;rounded=0;" vertex="1" parent="1">
          <mxGeometry x="630" y="1534" width="30" height="20" as="geometry" />
        </mxCell>
        <mxCell id="MgAOJkvai4jm7tvgy9-K-172" value="SM1" style="text;html=1;align=center;verticalAlign=middle;resizable=0;points=[];autosize=1;strokeColor=none;fillColor=none;" vertex="1" parent="1">
          <mxGeometry x="850" y="1020" width="50" height="30" as="geometry" />
        </mxCell>
        <mxCell id="MgAOJkvai4jm7tvgy9-K-173" value="0" style="text;html=1;align=center;verticalAlign=middle;resizable=0;points=[];autosize=1;strokeColor=none;fillColor=none;" vertex="1" parent="1">
          <mxGeometry x="772.5" y="1050" width="30" height="30" as="geometry" />
        </mxCell>
        <mxCell id="MgAOJkvai4jm7tvgy9-K-174" value="512" style="text;html=1;align=center;verticalAlign=middle;resizable=0;points=[];autosize=1;strokeColor=none;fillColor=none;" vertex="1" parent="1">
          <mxGeometry x="770" y="1180" width="40" height="30" as="geometry" />
        </mxCell>
        <mxCell id="MgAOJkvai4jm7tvgy9-K-176" value="" style="rounded=0;whiteSpace=wrap;html=1;direction=south;" vertex="1" parent="1">
          <mxGeometry x="810" y="1050" width="70" height="160" as="geometry" />
        </mxCell>
        <mxCell id="MgAOJkvai4jm7tvgy9-K-177" value="" style="endArrow=none;html=1;rounded=0;entryX=0.375;entryY=-0.005;entryDx=0;entryDy=0;entryPerimeter=0;" edge="1" parent="1" target="MgAOJkvai4jm7tvgy9-K-176">
          <mxGeometry width="50" height="50" relative="1" as="geometry">
            <mxPoint x="810" y="1110" as="sourcePoint" />
            <mxPoint x="860" y="1060" as="targetPoint" />
            <Array as="points">
              <mxPoint x="845" y="1110" />
            </Array>
          </mxGeometry>
        </mxCell>
        <mxCell id="MgAOJkvai4jm7tvgy9-K-179" value="" style="endArrow=none;html=1;rounded=0;exitX=0.803;exitY=-0.005;exitDx=0;exitDy=0;exitPerimeter=0;entryX=0.5;entryY=1;entryDx=0;entryDy=0;" edge="1" parent="1" source="MgAOJkvai4jm7tvgy9-K-122" target="MgAOJkvai4jm7tvgy9-K-176">
          <mxGeometry width="50" height="50" relative="1" as="geometry">
            <mxPoint x="730" y="1090" as="sourcePoint" />
            <mxPoint x="810" y="1090" as="targetPoint" />
            <Array as="points">
              <mxPoint x="340" y="1518" />
              <mxPoint x="400" y="1050" />
            </Array>
          </mxGeometry>
        </mxCell>
        <mxCell id="MgAOJkvai4jm7tvgy9-K-180" value="TS271" style="text;html=1;align=center;verticalAlign=middle;resizable=0;points=[];autosize=1;strokeColor=none;fillColor=none;" vertex="1" parent="1">
          <mxGeometry x="742.5" y="1130" width="60" height="30" as="geometry" />
        </mxCell>
        <mxCell id="MgAOJkvai4jm7tvgy9-K-181" value="SM7" style="text;html=1;align=center;verticalAlign=middle;resizable=0;points=[];autosize=1;strokeColor=none;fillColor=none;" vertex="1" parent="1">
          <mxGeometry x="850" y="1400" width="50" height="30" as="geometry" />
        </mxCell>
        <mxCell id="MgAOJkvai4jm7tvgy9-K-182" value="0" style="text;html=1;align=center;verticalAlign=middle;resizable=0;points=[];autosize=1;strokeColor=none;fillColor=none;" vertex="1" parent="1">
          <mxGeometry x="772.5" y="1430" width="30" height="30" as="geometry" />
        </mxCell>
        <mxCell id="MgAOJkvai4jm7tvgy9-K-183" value="511" style="text;html=1;align=center;verticalAlign=middle;resizable=0;points=[];autosize=1;strokeColor=none;fillColor=none;" vertex="1" parent="1">
          <mxGeometry x="767.5" y="1582" width="40" height="30" as="geometry" />
        </mxCell>
        <mxCell id="MgAOJkvai4jm7tvgy9-K-184" value="31" style="text;html=1;align=center;verticalAlign=middle;resizable=0;points=[];autosize=1;strokeColor=none;fillColor=none;" vertex="1" parent="1">
          <mxGeometry x="767.5" y="1490" width="40" height="30" as="geometry" />
        </mxCell>
        <mxCell id="MgAOJkvai4jm7tvgy9-K-185" value="8bits" style="rounded=0;whiteSpace=wrap;html=1;direction=south;" vertex="1" parent="1">
          <mxGeometry x="810" y="1430" width="70" height="160" as="geometry" />
        </mxCell>
        <mxCell id="MgAOJkvai4jm7tvgy9-K-186" value="" style="endArrow=none;html=1;rounded=0;entryX=0.375;entryY=-0.005;entryDx=0;entryDy=0;entryPerimeter=0;" edge="1" parent="1" target="MgAOJkvai4jm7tvgy9-K-185">
          <mxGeometry width="50" height="50" relative="1" as="geometry">
            <mxPoint x="810" y="1490" as="sourcePoint" />
            <mxPoint x="860" y="1440" as="targetPoint" />
          </mxGeometry>
        </mxCell>
        <mxCell id="MgAOJkvai4jm7tvgy9-K-187" value="" style="endArrow=none;html=1;rounded=0;entryX=0.375;entryY=-0.005;entryDx=0;entryDy=0;entryPerimeter=0;" edge="1" parent="1">
          <mxGeometry width="50" height="50" relative="1" as="geometry">
            <mxPoint x="810" y="1520" as="sourcePoint" />
            <mxPoint x="880" y="1520" as="targetPoint" />
          </mxGeometry>
        </mxCell>
        <mxCell id="MgAOJkvai4jm7tvgy9-K-188" value="" style="endArrow=none;html=1;rounded=0;exitX=0.801;exitY=-0.005;exitDx=0;exitDy=0;exitPerimeter=0;" edge="1" parent="1" source="MgAOJkvai4jm7tvgy9-K-112">
          <mxGeometry width="50" height="50" relative="1" as="geometry">
            <mxPoint x="730" y="1470" as="sourcePoint" />
            <mxPoint x="810" y="1470" as="targetPoint" />
            <Array as="points">
              <mxPoint x="720" y="1260" />
              <mxPoint x="690" y="1470" />
            </Array>
          </mxGeometry>
        </mxCell>
        <mxCell id="MgAOJkvai4jm7tvgy9-K-190" value="0" style="text;html=1;align=center;verticalAlign=middle;resizable=0;points=[];autosize=1;strokeColor=none;fillColor=none;" vertex="1" parent="1">
          <mxGeometry x="932.15" y="990" width="30" height="30" as="geometry" />
        </mxCell>
        <mxCell id="MgAOJkvai4jm7tvgy9-K-191" value="512" style="text;html=1;align=center;verticalAlign=middle;resizable=0;points=[];autosize=1;strokeColor=none;fillColor=none;" vertex="1" parent="1">
          <mxGeometry x="922.15" y="1120" width="40" height="30" as="geometry" />
        </mxCell>
        <mxCell id="MgAOJkvai4jm7tvgy9-K-192" value="271" style="text;html=1;align=center;verticalAlign=middle;resizable=0;points=[];autosize=1;strokeColor=none;fillColor=none;" vertex="1" parent="1">
          <mxGeometry x="927.15" y="1050" width="40" height="30" as="geometry" />
        </mxCell>
        <mxCell id="MgAOJkvai4jm7tvgy9-K-193" value="8" style="rounded=0;whiteSpace=wrap;html=1;direction=south;" vertex="1" parent="1">
          <mxGeometry x="969.65" y="990" width="70" height="160" as="geometry" />
        </mxCell>
        <mxCell id="MgAOJkvai4jm7tvgy9-K-194" value="" style="endArrow=none;html=1;rounded=0;entryX=0.375;entryY=-0.005;entryDx=0;entryDy=0;entryPerimeter=0;" edge="1" parent="1" target="MgAOJkvai4jm7tvgy9-K-193">
          <mxGeometry width="50" height="50" relative="1" as="geometry">
            <mxPoint x="969.65" y="1050" as="sourcePoint" />
            <mxPoint x="1019.65" y="1000" as="targetPoint" />
          </mxGeometry>
        </mxCell>
        <mxCell id="MgAOJkvai4jm7tvgy9-K-195" value="" style="endArrow=none;html=1;rounded=0;entryX=0.375;entryY=-0.005;entryDx=0;entryDy=0;entryPerimeter=0;" edge="1" parent="1">
          <mxGeometry width="50" height="50" relative="1" as="geometry">
            <mxPoint x="969.65" y="1080" as="sourcePoint" />
            <mxPoint x="1039.65" y="1080" as="targetPoint" />
          </mxGeometry>
        </mxCell>
        <mxCell id="MgAOJkvai4jm7tvgy9-K-196" value="CM1" style="text;html=1;align=center;verticalAlign=middle;resizable=0;points=[];autosize=1;strokeColor=none;fillColor=none;" vertex="1" parent="1">
          <mxGeometry x="1030" y="960" width="50" height="30" as="geometry" />
        </mxCell>
        <mxCell id="MgAOJkvai4jm7tvgy9-K-197" value="" style="endArrow=classic;html=1;rounded=0;exitX=0;exitY=0.5;exitDx=0;exitDy=0;entryX=0;entryY=0.5;entryDx=0;entryDy=0;" edge="1" parent="1" source="MgAOJkvai4jm7tvgy9-K-193" target="MgAOJkvai4jm7tvgy9-K-176">
          <mxGeometry width="50" height="50" relative="1" as="geometry">
            <mxPoint x="1180" y="1150" as="sourcePoint" />
            <mxPoint x="1230" y="1100" as="targetPoint" />
            <Array as="points">
              <mxPoint x="1005" y="970" />
              <mxPoint x="845" y="970" />
            </Array>
          </mxGeometry>
        </mxCell>
        <mxCell id="MgAOJkvai4jm7tvgy9-K-198" value="" style="endArrow=classic;html=1;rounded=0;exitX=0;exitY=0.5;exitDx=0;exitDy=0;entryX=0;entryY=0.5;entryDx=0;entryDy=0;" edge="1" parent="1">
          <mxGeometry width="50" height="50" relative="1" as="geometry">
            <mxPoint x="1005" y="1370" as="sourcePoint" />
            <mxPoint x="845" y="1430" as="targetPoint" />
            <Array as="points">
              <mxPoint x="1005" y="1350" />
              <mxPoint x="845" y="1350" />
            </Array>
          </mxGeometry>
        </mxCell>
        <mxCell id="MgAOJkvai4jm7tvgy9-K-199" value="0" style="text;html=1;align=center;verticalAlign=middle;resizable=0;points=[];autosize=1;strokeColor=none;fillColor=none;" vertex="1" parent="1">
          <mxGeometry x="931.8" y="1370" width="30" height="30" as="geometry" />
        </mxCell>
        <mxCell id="MgAOJkvai4jm7tvgy9-K-200" value="512" style="text;html=1;align=center;verticalAlign=middle;resizable=0;points=[];autosize=1;strokeColor=none;fillColor=none;" vertex="1" parent="1">
          <mxGeometry x="921.8" y="1500" width="40" height="30" as="geometry" />
        </mxCell>
        <mxCell id="MgAOJkvai4jm7tvgy9-K-202" value="" style="rounded=0;whiteSpace=wrap;html=1;direction=south;" vertex="1" parent="1">
          <mxGeometry x="969.3" y="1370" width="70" height="160" as="geometry" />
        </mxCell>
        <mxCell id="MgAOJkvai4jm7tvgy9-K-203" value="" style="endArrow=none;html=1;rounded=0;entryX=0.375;entryY=-0.005;entryDx=0;entryDy=0;entryPerimeter=0;" edge="1" parent="1">
          <mxGeometry width="50" height="50" relative="1" as="geometry">
            <mxPoint x="968.9499999999999" y="1428.41" as="sourcePoint" />
            <mxPoint x="1039.2999999999997" y="1428.41" as="targetPoint" />
          </mxGeometry>
        </mxCell>
        <mxCell id="MgAOJkvai4jm7tvgy9-K-204" value="" style="endArrow=none;html=1;rounded=0;entryX=0.375;entryY=-0.005;entryDx=0;entryDy=0;entryPerimeter=0;" edge="1" parent="1">
          <mxGeometry width="50" height="50" relative="1" as="geometry">
            <mxPoint x="969.65" y="1400" as="sourcePoint" />
            <mxPoint x="1039.6499999999999" y="1400" as="targetPoint" />
          </mxGeometry>
        </mxCell>
        <mxCell id="MgAOJkvai4jm7tvgy9-K-205" value="CM7" style="text;html=1;align=center;verticalAlign=middle;resizable=0;points=[];autosize=1;strokeColor=none;fillColor=none;" vertex="1" parent="1">
          <mxGeometry x="1025" y="1330" width="50" height="30" as="geometry" />
        </mxCell>
        <mxCell id="MgAOJkvai4jm7tvgy9-K-206" value="31" style="text;html=1;align=center;verticalAlign=middle;whiteSpace=wrap;rounded=0;" vertex="1" parent="1">
          <mxGeometry x="979.3" y="1400" width="60" height="30" as="geometry" />
        </mxCell>
        <mxCell id="MgAOJkvai4jm7tvgy9-K-207" value="" style="endArrow=none;html=1;rounded=0;" edge="1" parent="1">
          <mxGeometry width="50" height="50" relative="1" as="geometry">
            <mxPoint x="750" y="1050" as="sourcePoint" />
            <mxPoint x="720" y="1260" as="targetPoint" />
          </mxGeometry>
        </mxCell>
        <mxCell id="MgAOJkvai4jm7tvgy9-K-209" value="" style="endArrow=none;html=1;rounded=0;" edge="1" parent="1">
          <mxGeometry width="50" height="50" relative="1" as="geometry">
            <mxPoint x="720" y="1260" as="sourcePoint" />
            <mxPoint x="850" y="1290" as="targetPoint" />
          </mxGeometry>
        </mxCell>
        <mxCell id="MgAOJkvai4jm7tvgy9-K-210" value="" style="endArrow=none;html=1;rounded=0;" edge="1" parent="1">
          <mxGeometry width="50" height="50" relative="1" as="geometry">
            <mxPoint x="400" y="1050" as="sourcePoint" />
            <mxPoint x="410" y="970" as="targetPoint" />
          </mxGeometry>
        </mxCell>
        <mxCell id="MgAOJkvai4jm7tvgy9-K-211" value="" style="endArrow=none;html=1;rounded=0;" edge="1" parent="1">
          <mxGeometry width="50" height="50" relative="1" as="geometry">
            <mxPoint x="400" y="1050" as="sourcePoint" />
            <mxPoint x="310" y="1030" as="targetPoint" />
          </mxGeometry>
        </mxCell>
        <mxCell id="MgAOJkvai4jm7tvgy9-K-212" value="TS271" style="text;html=1;align=center;verticalAlign=middle;resizable=0;points=[];autosize=1;strokeColor=none;fillColor=none;" vertex="1" parent="1">
          <mxGeometry x="310" y="1260" width="60" height="30" as="geometry" />
        </mxCell>
        <mxCell id="MgAOJkvai4jm7tvgy9-K-213" value="TS15" style="text;html=1;align=center;verticalAlign=middle;resizable=0;points=[];autosize=1;strokeColor=none;fillColor=none;" vertex="1" parent="1">
          <mxGeometry x="215" y="1169" width="50" height="30" as="geometry" />
        </mxCell>
        <mxCell id="MgAOJkvai4jm7tvgy9-K-214" value="TS15" style="text;html=1;align=center;verticalAlign=middle;resizable=0;points=[];autosize=1;strokeColor=none;fillColor=none;" vertex="1" parent="1">
          <mxGeometry x="700" y="1410" width="50" height="30" as="geometry" />
        </mxCell>
        <mxCell id="MgAOJkvai4jm7tvgy9-K-215" value="" style="endArrow=none;html=1;rounded=0;entryX=0.25;entryY=0;entryDx=0;entryDy=0;exitX=0.25;exitY=1;exitDx=0;exitDy=0;" edge="1" parent="1" source="MgAOJkvai4jm7tvgy9-K-176" target="MgAOJkvai4jm7tvgy9-K-176">
          <mxGeometry width="50" height="50" relative="1" as="geometry">
            <mxPoint x="820" y="1120" as="sourcePoint" />
            <mxPoint x="890" y="1120" as="targetPoint" />
            <Array as="points" />
          </mxGeometry>
        </mxCell>
        <mxCell id="MgAOJkvai4jm7tvgy9-K-216" value="8" style="text;html=1;align=center;verticalAlign=middle;resizable=0;points=[];autosize=1;strokeColor=none;fillColor=none;" vertex="1" parent="1">
          <mxGeometry x="775" y="1088" width="30" height="30" as="geometry" />
        </mxCell>
        <mxCell id="MgAOJkvai4jm7tvgy9-K-218" value="8bit" style="text;html=1;align=center;verticalAlign=middle;whiteSpace=wrap;rounded=0;" vertex="1" parent="1">
          <mxGeometry x="825" y="1090" width="40" height="18" as="geometry" />
        </mxCell>
        <mxCell id="MgAOJkvai4jm7tvgy9-K-221" value="15" style="text;html=1;align=center;verticalAlign=middle;resizable=0;points=[];autosize=1;strokeColor=none;fillColor=none;" vertex="1" parent="1">
          <mxGeometry x="921.8" y="1400" width="40" height="30" as="geometry" />
        </mxCell>
        <mxCell id="MgAOJkvai4jm7tvgy9-K-224" value="" style="endArrow=classic;html=1;rounded=0;exitX=0.823;exitY=0.025;exitDx=0;exitDy=0;exitPerimeter=0;" edge="1" parent="1" source="MgAOJkvai4jm7tvgy9-K-185">
          <mxGeometry width="50" height="50" relative="1" as="geometry">
            <mxPoint x="890" y="1440" as="sourcePoint" />
            <mxPoint x="-60" y="1680" as="targetPoint" />
            <Array as="points">
              <mxPoint x="1020" y="1562" />
              <mxPoint x="1020" y="1680" />
              <mxPoint x="270" y="1680" />
            </Array>
          </mxGeometry>
        </mxCell>
        <mxCell id="MgAOJkvai4jm7tvgy9-K-225" value="" style="endArrow=classic;html=1;rounded=0;exitX=0.823;exitY=0.025;exitDx=0;exitDy=0;exitPerimeter=0;" edge="1" parent="1">
          <mxGeometry width="50" height="50" relative="1" as="geometry">
            <mxPoint x="880" y="1169" as="sourcePoint" />
            <mxPoint x="-60" y="920" as="targetPoint" />
            <Array as="points">
              <mxPoint x="1180" y="1170" />
              <mxPoint x="1180" y="920" />
              <mxPoint x="490" y="920" />
            </Array>
          </mxGeometry>
        </mxCell>
        <mxCell id="MgAOJkvai4jm7tvgy9-K-226" value="TS8" style="text;html=1;align=center;verticalAlign=middle;resizable=0;points=[];autosize=1;strokeColor=none;fillColor=none;" vertex="1" parent="1">
          <mxGeometry x="-75" y="890" width="50" height="30" as="geometry" />
        </mxCell>
        <mxCell id="MgAOJkvai4jm7tvgy9-K-227" value="TS31" style="text;html=1;align=center;verticalAlign=middle;resizable=0;points=[];autosize=1;strokeColor=none;fillColor=none;" vertex="1" parent="1">
          <mxGeometry x="-52.5" y="1640" width="50" height="30" as="geometry" />
        </mxCell>
        <mxCell id="MgAOJkvai4jm7tvgy9-K-228" value="16×16可重排无阻塞Benes网络" style="text;html=1;align=center;verticalAlign=middle;resizable=0;points=[];autosize=1;strokeColor=#b85450;fillColor=#f8cecc;" vertex="1" parent="1">
          <mxGeometry x="-92.5" y="1790" width="190" height="30" as="geometry" />
        </mxCell>
        <mxCell id="MgAOJkvai4jm7tvgy9-K-231" value="" style="whiteSpace=wrap;html=1;aspect=fixed;" vertex="1" parent="1">
          <mxGeometry x="-47.75" y="1860" width="60" height="60" as="geometry" />
        </mxCell>
        <mxCell id="MgAOJkvai4jm7tvgy9-K-232" value="0" style="text;html=1;align=center;verticalAlign=middle;whiteSpace=wrap;rounded=0;" vertex="1" parent="1">
          <mxGeometry x="-53.25" y="1870" width="35" height="20" as="geometry" />
        </mxCell>
        <mxCell id="MgAOJkvai4jm7tvgy9-K-233" value="0" style="text;html=1;align=center;verticalAlign=middle;whiteSpace=wrap;rounded=0;" vertex="1" parent="1">
          <mxGeometry x="-15.75" y="1870" width="35" height="20" as="geometry" />
        </mxCell>
        <mxCell id="MgAOJkvai4jm7tvgy9-K-234" value="1" style="text;html=1;align=center;verticalAlign=middle;whiteSpace=wrap;rounded=0;" vertex="1" parent="1">
          <mxGeometry x="-53.25" y="1890" width="35" height="20" as="geometry" />
        </mxCell>
        <mxCell id="MgAOJkvai4jm7tvgy9-K-235" value="1" style="text;html=1;align=center;verticalAlign=middle;whiteSpace=wrap;rounded=0;" vertex="1" parent="1">
          <mxGeometry x="-15.75" y="1890" width="35" height="20" as="geometry" />
        </mxCell>
        <mxCell id="MgAOJkvai4jm7tvgy9-K-251" value="" style="whiteSpace=wrap;html=1;aspect=fixed;" vertex="1" parent="1">
          <mxGeometry x="-47" y="1980" width="60" height="60" as="geometry" />
        </mxCell>
        <mxCell id="MgAOJkvai4jm7tvgy9-K-252" value="0" style="text;html=1;align=center;verticalAlign=middle;whiteSpace=wrap;rounded=0;" vertex="1" parent="1">
          <mxGeometry x="-52.5" y="1990" width="35" height="20" as="geometry" />
        </mxCell>
        <mxCell id="MgAOJkvai4jm7tvgy9-K-253" value="0" style="text;html=1;align=center;verticalAlign=middle;whiteSpace=wrap;rounded=0;" vertex="1" parent="1">
          <mxGeometry x="-15" y="1990" width="35" height="20" as="geometry" />
        </mxCell>
        <mxCell id="MgAOJkvai4jm7tvgy9-K-254" value="1" style="text;html=1;align=center;verticalAlign=middle;whiteSpace=wrap;rounded=0;" vertex="1" parent="1">
          <mxGeometry x="-52.5" y="2010" width="35" height="20" as="geometry" />
        </mxCell>
        <mxCell id="MgAOJkvai4jm7tvgy9-K-255" value="1" style="text;html=1;align=center;verticalAlign=middle;whiteSpace=wrap;rounded=0;" vertex="1" parent="1">
          <mxGeometry x="-15" y="2010" width="35" height="20" as="geometry" />
        </mxCell>
        <mxCell id="MgAOJkvai4jm7tvgy9-K-261" value="" style="whiteSpace=wrap;html=1;aspect=fixed;" vertex="1" parent="1">
          <mxGeometry x="-47.75" y="2110" width="60" height="60" as="geometry" />
        </mxCell>
        <mxCell id="MgAOJkvai4jm7tvgy9-K-262" value="0" style="text;html=1;align=center;verticalAlign=middle;whiteSpace=wrap;rounded=0;" vertex="1" parent="1">
          <mxGeometry x="-53.25" y="2120" width="35" height="20" as="geometry" />
        </mxCell>
        <mxCell id="MgAOJkvai4jm7tvgy9-K-263" value="0" style="text;html=1;align=center;verticalAlign=middle;whiteSpace=wrap;rounded=0;" vertex="1" parent="1">
          <mxGeometry x="-15.75" y="2120" width="35" height="20" as="geometry" />
        </mxCell>
        <mxCell id="MgAOJkvai4jm7tvgy9-K-264" value="1" style="text;html=1;align=center;verticalAlign=middle;whiteSpace=wrap;rounded=0;" vertex="1" parent="1">
          <mxGeometry x="-53.25" y="2140" width="35" height="20" as="geometry" />
        </mxCell>
        <mxCell id="MgAOJkvai4jm7tvgy9-K-265" value="1" style="text;html=1;align=center;verticalAlign=middle;whiteSpace=wrap;rounded=0;" vertex="1" parent="1">
          <mxGeometry x="-15.75" y="2140" width="35" height="20" as="geometry" />
        </mxCell>
        <mxCell id="MgAOJkvai4jm7tvgy9-K-266" value="" style="whiteSpace=wrap;html=1;aspect=fixed;" vertex="1" parent="1">
          <mxGeometry x="-47" y="2230" width="60" height="60" as="geometry" />
        </mxCell>
        <mxCell id="MgAOJkvai4jm7tvgy9-K-267" value="0" style="text;html=1;align=center;verticalAlign=middle;whiteSpace=wrap;rounded=0;" vertex="1" parent="1">
          <mxGeometry x="-52.5" y="2240" width="35" height="20" as="geometry" />
        </mxCell>
        <mxCell id="MgAOJkvai4jm7tvgy9-K-268" value="0" style="text;html=1;align=center;verticalAlign=middle;whiteSpace=wrap;rounded=0;" vertex="1" parent="1">
          <mxGeometry x="-15" y="2240" width="35" height="20" as="geometry" />
        </mxCell>
        <mxCell id="MgAOJkvai4jm7tvgy9-K-269" value="1" style="text;html=1;align=center;verticalAlign=middle;whiteSpace=wrap;rounded=0;" vertex="1" parent="1">
          <mxGeometry x="-52.5" y="2260" width="35" height="20" as="geometry" />
        </mxCell>
        <mxCell id="MgAOJkvai4jm7tvgy9-K-270" value="1" style="text;html=1;align=center;verticalAlign=middle;whiteSpace=wrap;rounded=0;" vertex="1" parent="1">
          <mxGeometry x="-15" y="2260" width="35" height="20" as="geometry" />
        </mxCell>
        <mxCell id="MgAOJkvai4jm7tvgy9-K-291" value="" style="whiteSpace=wrap;html=1;aspect=fixed;direction=east;" vertex="1" parent="1">
          <mxGeometry x="-47" y="2338" width="60" height="60" as="geometry" />
        </mxCell>
        <mxCell id="MgAOJkvai4jm7tvgy9-K-292" value="0" style="text;html=1;align=center;verticalAlign=middle;whiteSpace=wrap;rounded=0;direction=east;" vertex="1" parent="1">
          <mxGeometry x="-47.75" y="2348" width="27.75" height="20" as="geometry" />
        </mxCell>
        <mxCell id="MgAOJkvai4jm7tvgy9-K-293" value="0" style="text;html=1;align=center;verticalAlign=middle;whiteSpace=wrap;rounded=0;direction=east;" vertex="1" parent="1">
          <mxGeometry x="-15" y="2348" width="35" height="20" as="geometry" />
        </mxCell>
        <mxCell id="MgAOJkvai4jm7tvgy9-K-294" value="1" style="text;html=1;align=center;verticalAlign=middle;whiteSpace=wrap;rounded=0;direction=east;" vertex="1" parent="1">
          <mxGeometry x="-52.5" y="2368" width="35" height="20" as="geometry" />
        </mxCell>
        <mxCell id="MgAOJkvai4jm7tvgy9-K-295" value="1" style="text;html=1;align=center;verticalAlign=middle;whiteSpace=wrap;rounded=0;direction=east;" vertex="1" parent="1">
          <mxGeometry x="-15" y="2368" width="35" height="20" as="geometry" />
        </mxCell>
        <mxCell id="MgAOJkvai4jm7tvgy9-K-296" value="" style="whiteSpace=wrap;html=1;aspect=fixed;" vertex="1" parent="1">
          <mxGeometry x="-46.25" y="2458" width="60" height="60" as="geometry" />
        </mxCell>
        <mxCell id="MgAOJkvai4jm7tvgy9-K-297" value="0" style="text;html=1;align=center;verticalAlign=middle;whiteSpace=wrap;rounded=0;" vertex="1" parent="1">
          <mxGeometry x="-51.75" y="2468" width="35" height="20" as="geometry" />
        </mxCell>
        <mxCell id="MgAOJkvai4jm7tvgy9-K-298" value="0" style="text;html=1;align=center;verticalAlign=middle;whiteSpace=wrap;rounded=0;" vertex="1" parent="1">
          <mxGeometry x="-14.25" y="2468" width="35" height="20" as="geometry" />
        </mxCell>
        <mxCell id="MgAOJkvai4jm7tvgy9-K-299" value="1" style="text;html=1;align=center;verticalAlign=middle;whiteSpace=wrap;rounded=0;" vertex="1" parent="1">
          <mxGeometry x="-51.75" y="2488" width="35" height="20" as="geometry" />
        </mxCell>
        <mxCell id="MgAOJkvai4jm7tvgy9-K-300" value="1" style="text;html=1;align=center;verticalAlign=middle;whiteSpace=wrap;rounded=0;" vertex="1" parent="1">
          <mxGeometry x="-14.25" y="2488" width="35" height="20" as="geometry" />
        </mxCell>
        <mxCell id="MgAOJkvai4jm7tvgy9-K-301" value="" style="whiteSpace=wrap;html=1;aspect=fixed;" vertex="1" parent="1">
          <mxGeometry x="-47" y="2588" width="60" height="60" as="geometry" />
        </mxCell>
        <mxCell id="MgAOJkvai4jm7tvgy9-K-302" value="0" style="text;html=1;align=center;verticalAlign=middle;whiteSpace=wrap;rounded=0;" vertex="1" parent="1">
          <mxGeometry x="-52.5" y="2598" width="35" height="20" as="geometry" />
        </mxCell>
        <mxCell id="MgAOJkvai4jm7tvgy9-K-303" value="0" style="text;html=1;align=center;verticalAlign=middle;whiteSpace=wrap;rounded=0;" vertex="1" parent="1">
          <mxGeometry x="-15" y="2598" width="35" height="20" as="geometry" />
        </mxCell>
        <mxCell id="MgAOJkvai4jm7tvgy9-K-304" value="1" style="text;html=1;align=center;verticalAlign=middle;whiteSpace=wrap;rounded=0;" vertex="1" parent="1">
          <mxGeometry x="-52.5" y="2618" width="35" height="20" as="geometry" />
        </mxCell>
        <mxCell id="MgAOJkvai4jm7tvgy9-K-305" value="1" style="text;html=1;align=center;verticalAlign=middle;whiteSpace=wrap;rounded=0;" vertex="1" parent="1">
          <mxGeometry x="-15" y="2618" width="35" height="20" as="geometry" />
        </mxCell>
        <mxCell id="MgAOJkvai4jm7tvgy9-K-306" value="" style="whiteSpace=wrap;html=1;aspect=fixed;" vertex="1" parent="1">
          <mxGeometry x="-46.25" y="2708" width="60" height="60" as="geometry" />
        </mxCell>
        <mxCell id="MgAOJkvai4jm7tvgy9-K-307" value="0" style="text;html=1;align=center;verticalAlign=middle;whiteSpace=wrap;rounded=0;" vertex="1" parent="1">
          <mxGeometry x="-51.75" y="2718" width="35" height="20" as="geometry" />
        </mxCell>
        <mxCell id="MgAOJkvai4jm7tvgy9-K-308" value="0" style="text;html=1;align=center;verticalAlign=middle;whiteSpace=wrap;rounded=0;" vertex="1" parent="1">
          <mxGeometry x="-14.25" y="2718" width="35" height="20" as="geometry" />
        </mxCell>
        <mxCell id="MgAOJkvai4jm7tvgy9-K-309" value="1" style="text;html=1;align=center;verticalAlign=middle;whiteSpace=wrap;rounded=0;" vertex="1" parent="1">
          <mxGeometry x="-51.75" y="2738" width="35" height="20" as="geometry" />
        </mxCell>
        <mxCell id="MgAOJkvai4jm7tvgy9-K-310" value="1" style="text;html=1;align=center;verticalAlign=middle;whiteSpace=wrap;rounded=0;" vertex="1" parent="1">
          <mxGeometry x="-14.25" y="2738" width="35" height="20" as="geometry" />
        </mxCell>
        <mxCell id="MgAOJkvai4jm7tvgy9-K-311" value="" style="whiteSpace=wrap;html=1;aspect=fixed;" vertex="1" parent="1">
          <mxGeometry x="128.5" y="1860" width="60" height="60" as="geometry" />
        </mxCell>
        <mxCell id="MgAOJkvai4jm7tvgy9-K-312" value="0" style="text;html=1;align=center;verticalAlign=middle;whiteSpace=wrap;rounded=0;" vertex="1" parent="1">
          <mxGeometry x="123" y="1870" width="35" height="20" as="geometry" />
        </mxCell>
        <mxCell id="MgAOJkvai4jm7tvgy9-K-313" value="0" style="text;html=1;align=center;verticalAlign=middle;whiteSpace=wrap;rounded=0;" vertex="1" parent="1">
          <mxGeometry x="160.5" y="1870" width="35" height="20" as="geometry" />
        </mxCell>
        <mxCell id="MgAOJkvai4jm7tvgy9-K-314" value="1" style="text;html=1;align=center;verticalAlign=middle;whiteSpace=wrap;rounded=0;" vertex="1" parent="1">
          <mxGeometry x="123" y="1890" width="35" height="20" as="geometry" />
        </mxCell>
        <mxCell id="MgAOJkvai4jm7tvgy9-K-315" value="1" style="text;html=1;align=center;verticalAlign=middle;whiteSpace=wrap;rounded=0;" vertex="1" parent="1">
          <mxGeometry x="160.5" y="1890" width="35" height="20" as="geometry" />
        </mxCell>
        <mxCell id="MgAOJkvai4jm7tvgy9-K-316" value="" style="whiteSpace=wrap;html=1;aspect=fixed;" vertex="1" parent="1">
          <mxGeometry x="129.25" y="1980" width="60" height="60" as="geometry" />
        </mxCell>
        <mxCell id="MgAOJkvai4jm7tvgy9-K-317" value="0" style="text;html=1;align=center;verticalAlign=middle;whiteSpace=wrap;rounded=0;" vertex="1" parent="1">
          <mxGeometry x="123.75" y="1990" width="35" height="20" as="geometry" />
        </mxCell>
        <mxCell id="MgAOJkvai4jm7tvgy9-K-318" value="0" style="text;html=1;align=center;verticalAlign=middle;whiteSpace=wrap;rounded=0;" vertex="1" parent="1">
          <mxGeometry x="161.25" y="1990" width="35" height="20" as="geometry" />
        </mxCell>
        <mxCell id="MgAOJkvai4jm7tvgy9-K-319" value="1" style="text;html=1;align=center;verticalAlign=middle;whiteSpace=wrap;rounded=0;" vertex="1" parent="1">
          <mxGeometry x="123.75" y="2010" width="35" height="20" as="geometry" />
        </mxCell>
        <mxCell id="MgAOJkvai4jm7tvgy9-K-320" value="1" style="text;html=1;align=center;verticalAlign=middle;whiteSpace=wrap;rounded=0;" vertex="1" parent="1">
          <mxGeometry x="161.25" y="2010" width="35" height="20" as="geometry" />
        </mxCell>
        <mxCell id="MgAOJkvai4jm7tvgy9-K-321" value="" style="whiteSpace=wrap;html=1;aspect=fixed;" vertex="1" parent="1">
          <mxGeometry x="128.5" y="2110" width="60" height="60" as="geometry" />
        </mxCell>
        <mxCell id="MgAOJkvai4jm7tvgy9-K-322" value="0" style="text;html=1;align=center;verticalAlign=middle;whiteSpace=wrap;rounded=0;" vertex="1" parent="1">
          <mxGeometry x="123" y="2120" width="35" height="20" as="geometry" />
        </mxCell>
        <mxCell id="MgAOJkvai4jm7tvgy9-K-323" value="0" style="text;html=1;align=center;verticalAlign=middle;whiteSpace=wrap;rounded=0;" vertex="1" parent="1">
          <mxGeometry x="160.5" y="2120" width="35" height="20" as="geometry" />
        </mxCell>
        <mxCell id="MgAOJkvai4jm7tvgy9-K-324" value="1" style="text;html=1;align=center;verticalAlign=middle;whiteSpace=wrap;rounded=0;" vertex="1" parent="1">
          <mxGeometry x="123" y="2140" width="35" height="20" as="geometry" />
        </mxCell>
        <mxCell id="MgAOJkvai4jm7tvgy9-K-325" value="1" style="text;html=1;align=center;verticalAlign=middle;whiteSpace=wrap;rounded=0;" vertex="1" parent="1">
          <mxGeometry x="160.5" y="2140" width="35" height="20" as="geometry" />
        </mxCell>
        <mxCell id="MgAOJkvai4jm7tvgy9-K-326" value="" style="whiteSpace=wrap;html=1;aspect=fixed;" vertex="1" parent="1">
          <mxGeometry x="129.25" y="2230" width="60" height="60" as="geometry" />
        </mxCell>
        <mxCell id="MgAOJkvai4jm7tvgy9-K-327" value="0" style="text;html=1;align=center;verticalAlign=middle;whiteSpace=wrap;rounded=0;" vertex="1" parent="1">
          <mxGeometry x="123.75" y="2240" width="35" height="20" as="geometry" />
        </mxCell>
        <mxCell id="MgAOJkvai4jm7tvgy9-K-328" value="0" style="text;html=1;align=center;verticalAlign=middle;whiteSpace=wrap;rounded=0;" vertex="1" parent="1">
          <mxGeometry x="161.25" y="2240" width="35" height="20" as="geometry" />
        </mxCell>
        <mxCell id="MgAOJkvai4jm7tvgy9-K-329" value="1" style="text;html=1;align=center;verticalAlign=middle;whiteSpace=wrap;rounded=0;" vertex="1" parent="1">
          <mxGeometry x="123.75" y="2260" width="35" height="20" as="geometry" />
        </mxCell>
        <mxCell id="MgAOJkvai4jm7tvgy9-K-330" value="1" style="text;html=1;align=center;verticalAlign=middle;whiteSpace=wrap;rounded=0;" vertex="1" parent="1">
          <mxGeometry x="161.25" y="2260" width="35" height="20" as="geometry" />
        </mxCell>
        <mxCell id="MgAOJkvai4jm7tvgy9-K-331" value="" style="whiteSpace=wrap;html=1;aspect=fixed;" vertex="1" parent="1">
          <mxGeometry x="129.25" y="2338" width="60" height="60" as="geometry" />
        </mxCell>
        <mxCell id="MgAOJkvai4jm7tvgy9-K-332" value="0" style="text;html=1;align=center;verticalAlign=middle;whiteSpace=wrap;rounded=0;" vertex="1" parent="1">
          <mxGeometry x="123.75" y="2348" width="27.75" height="20" as="geometry" />
        </mxCell>
        <mxCell id="MgAOJkvai4jm7tvgy9-K-333" value="0" style="text;html=1;align=center;verticalAlign=middle;whiteSpace=wrap;rounded=0;" vertex="1" parent="1">
          <mxGeometry x="161.25" y="2348" width="35" height="20" as="geometry" />
        </mxCell>
        <mxCell id="MgAOJkvai4jm7tvgy9-K-334" value="1" style="text;html=1;align=center;verticalAlign=middle;whiteSpace=wrap;rounded=0;" vertex="1" parent="1">
          <mxGeometry x="120" y="2368" width="35" height="20" as="geometry" />
        </mxCell>
        <mxCell id="MgAOJkvai4jm7tvgy9-K-335" value="1" style="text;html=1;align=center;verticalAlign=middle;whiteSpace=wrap;rounded=0;" vertex="1" parent="1">
          <mxGeometry x="161.25" y="2368" width="35" height="20" as="geometry" />
        </mxCell>
        <mxCell id="MgAOJkvai4jm7tvgy9-K-336" value="" style="whiteSpace=wrap;html=1;aspect=fixed;" vertex="1" parent="1">
          <mxGeometry x="130" y="2458" width="60" height="60" as="geometry" />
        </mxCell>
        <mxCell id="MgAOJkvai4jm7tvgy9-K-337" value="0" style="text;html=1;align=center;verticalAlign=middle;whiteSpace=wrap;rounded=0;" vertex="1" parent="1">
          <mxGeometry x="124.5" y="2468" width="35" height="20" as="geometry" />
        </mxCell>
        <mxCell id="MgAOJkvai4jm7tvgy9-K-338" value="0" style="text;html=1;align=center;verticalAlign=middle;whiteSpace=wrap;rounded=0;" vertex="1" parent="1">
          <mxGeometry x="162" y="2468" width="35" height="20" as="geometry" />
        </mxCell>
        <mxCell id="MgAOJkvai4jm7tvgy9-K-339" value="1" style="text;html=1;align=center;verticalAlign=middle;whiteSpace=wrap;rounded=0;" vertex="1" parent="1">
          <mxGeometry x="124.5" y="2488" width="35" height="20" as="geometry" />
        </mxCell>
        <mxCell id="MgAOJkvai4jm7tvgy9-K-340" value="1" style="text;html=1;align=center;verticalAlign=middle;whiteSpace=wrap;rounded=0;" vertex="1" parent="1">
          <mxGeometry x="162" y="2488" width="35" height="20" as="geometry" />
        </mxCell>
        <mxCell id="MgAOJkvai4jm7tvgy9-K-341" value="" style="whiteSpace=wrap;html=1;aspect=fixed;" vertex="1" parent="1">
          <mxGeometry x="129.25" y="2588" width="60" height="60" as="geometry" />
        </mxCell>
        <mxCell id="MgAOJkvai4jm7tvgy9-K-342" value="0" style="text;html=1;align=center;verticalAlign=middle;whiteSpace=wrap;rounded=0;" vertex="1" parent="1">
          <mxGeometry x="123.75" y="2598" width="35" height="20" as="geometry" />
        </mxCell>
        <mxCell id="MgAOJkvai4jm7tvgy9-K-343" value="0" style="text;html=1;align=center;verticalAlign=middle;whiteSpace=wrap;rounded=0;" vertex="1" parent="1">
          <mxGeometry x="161.25" y="2598" width="35" height="20" as="geometry" />
        </mxCell>
        <mxCell id="MgAOJkvai4jm7tvgy9-K-344" value="1" style="text;html=1;align=center;verticalAlign=middle;whiteSpace=wrap;rounded=0;" vertex="1" parent="1">
          <mxGeometry x="123.75" y="2618" width="35" height="20" as="geometry" />
        </mxCell>
        <mxCell id="MgAOJkvai4jm7tvgy9-K-345" value="1" style="text;html=1;align=center;verticalAlign=middle;whiteSpace=wrap;rounded=0;" vertex="1" parent="1">
          <mxGeometry x="161.25" y="2618" width="35" height="20" as="geometry" />
        </mxCell>
        <mxCell id="MgAOJkvai4jm7tvgy9-K-346" value="" style="whiteSpace=wrap;html=1;aspect=fixed;" vertex="1" parent="1">
          <mxGeometry x="130" y="2708" width="60" height="60" as="geometry" />
        </mxCell>
        <mxCell id="MgAOJkvai4jm7tvgy9-K-347" value="0" style="text;html=1;align=center;verticalAlign=middle;whiteSpace=wrap;rounded=0;" vertex="1" parent="1">
          <mxGeometry x="124.5" y="2718" width="35" height="20" as="geometry" />
        </mxCell>
        <mxCell id="MgAOJkvai4jm7tvgy9-K-348" value="0" style="text;html=1;align=center;verticalAlign=middle;whiteSpace=wrap;rounded=0;" vertex="1" parent="1">
          <mxGeometry x="162" y="2718" width="35" height="20" as="geometry" />
        </mxCell>
        <mxCell id="MgAOJkvai4jm7tvgy9-K-349" value="1" style="text;html=1;align=center;verticalAlign=middle;whiteSpace=wrap;rounded=0;" vertex="1" parent="1">
          <mxGeometry x="124.5" y="2738" width="35" height="20" as="geometry" />
        </mxCell>
        <mxCell id="MgAOJkvai4jm7tvgy9-K-350" value="1" style="text;html=1;align=center;verticalAlign=middle;whiteSpace=wrap;rounded=0;" vertex="1" parent="1">
          <mxGeometry x="162" y="2738" width="35" height="20" as="geometry" />
        </mxCell>
        <mxCell id="MgAOJkvai4jm7tvgy9-K-351" value="" style="whiteSpace=wrap;html=1;aspect=fixed;" vertex="1" parent="1">
          <mxGeometry x="295.25" y="1860" width="60" height="60" as="geometry" />
        </mxCell>
        <mxCell id="MgAOJkvai4jm7tvgy9-K-352" value="0" style="text;html=1;align=center;verticalAlign=middle;whiteSpace=wrap;rounded=0;" vertex="1" parent="1">
          <mxGeometry x="289.75" y="1870" width="35" height="20" as="geometry" />
        </mxCell>
        <mxCell id="MgAOJkvai4jm7tvgy9-K-353" value="0" style="text;html=1;align=center;verticalAlign=middle;whiteSpace=wrap;rounded=0;" vertex="1" parent="1">
          <mxGeometry x="327.25" y="1870" width="35" height="20" as="geometry" />
        </mxCell>
        <mxCell id="MgAOJkvai4jm7tvgy9-K-354" value="1" style="text;html=1;align=center;verticalAlign=middle;whiteSpace=wrap;rounded=0;" vertex="1" parent="1">
          <mxGeometry x="289.75" y="1890" width="35" height="20" as="geometry" />
        </mxCell>
        <mxCell id="MgAOJkvai4jm7tvgy9-K-355" value="1" style="text;html=1;align=center;verticalAlign=middle;whiteSpace=wrap;rounded=0;" vertex="1" parent="1">
          <mxGeometry x="327.25" y="1890" width="35" height="20" as="geometry" />
        </mxCell>
        <mxCell id="MgAOJkvai4jm7tvgy9-K-356" value="" style="whiteSpace=wrap;html=1;aspect=fixed;" vertex="1" parent="1">
          <mxGeometry x="296" y="1980" width="60" height="60" as="geometry" />
        </mxCell>
        <mxCell id="MgAOJkvai4jm7tvgy9-K-357" value="0" style="text;html=1;align=center;verticalAlign=middle;whiteSpace=wrap;rounded=0;" vertex="1" parent="1">
          <mxGeometry x="290.5" y="1990" width="35" height="20" as="geometry" />
        </mxCell>
        <mxCell id="MgAOJkvai4jm7tvgy9-K-358" value="0" style="text;html=1;align=center;verticalAlign=middle;whiteSpace=wrap;rounded=0;" vertex="1" parent="1">
          <mxGeometry x="328" y="1990" width="35" height="20" as="geometry" />
        </mxCell>
        <mxCell id="MgAOJkvai4jm7tvgy9-K-359" value="1" style="text;html=1;align=center;verticalAlign=middle;whiteSpace=wrap;rounded=0;" vertex="1" parent="1">
          <mxGeometry x="290.5" y="2010" width="35" height="20" as="geometry" />
        </mxCell>
        <mxCell id="MgAOJkvai4jm7tvgy9-K-360" value="1" style="text;html=1;align=center;verticalAlign=middle;whiteSpace=wrap;rounded=0;" vertex="1" parent="1">
          <mxGeometry x="328" y="2010" width="35" height="20" as="geometry" />
        </mxCell>
        <mxCell id="MgAOJkvai4jm7tvgy9-K-361" value="" style="whiteSpace=wrap;html=1;aspect=fixed;" vertex="1" parent="1">
          <mxGeometry x="295.25" y="2110" width="60" height="60" as="geometry" />
        </mxCell>
        <mxCell id="MgAOJkvai4jm7tvgy9-K-362" value="0" style="text;html=1;align=center;verticalAlign=middle;whiteSpace=wrap;rounded=0;" vertex="1" parent="1">
          <mxGeometry x="289.75" y="2120" width="35" height="20" as="geometry" />
        </mxCell>
        <mxCell id="MgAOJkvai4jm7tvgy9-K-363" value="0" style="text;html=1;align=center;verticalAlign=middle;whiteSpace=wrap;rounded=0;" vertex="1" parent="1">
          <mxGeometry x="327.25" y="2120" width="35" height="20" as="geometry" />
        </mxCell>
        <mxCell id="MgAOJkvai4jm7tvgy9-K-364" value="1" style="text;html=1;align=center;verticalAlign=middle;whiteSpace=wrap;rounded=0;" vertex="1" parent="1">
          <mxGeometry x="289.75" y="2140" width="35" height="20" as="geometry" />
        </mxCell>
        <mxCell id="MgAOJkvai4jm7tvgy9-K-365" value="1" style="text;html=1;align=center;verticalAlign=middle;whiteSpace=wrap;rounded=0;" vertex="1" parent="1">
          <mxGeometry x="327.25" y="2140" width="35" height="20" as="geometry" />
        </mxCell>
        <mxCell id="MgAOJkvai4jm7tvgy9-K-366" value="" style="whiteSpace=wrap;html=1;aspect=fixed;" vertex="1" parent="1">
          <mxGeometry x="296" y="2230" width="60" height="60" as="geometry" />
        </mxCell>
        <mxCell id="MgAOJkvai4jm7tvgy9-K-367" value="0" style="text;html=1;align=center;verticalAlign=middle;whiteSpace=wrap;rounded=0;" vertex="1" parent="1">
          <mxGeometry x="290.5" y="2240" width="35" height="20" as="geometry" />
        </mxCell>
        <mxCell id="MgAOJkvai4jm7tvgy9-K-368" value="0" style="text;html=1;align=center;verticalAlign=middle;whiteSpace=wrap;rounded=0;" vertex="1" parent="1">
          <mxGeometry x="328" y="2240" width="35" height="20" as="geometry" />
        </mxCell>
        <mxCell id="MgAOJkvai4jm7tvgy9-K-369" value="1" style="text;html=1;align=center;verticalAlign=middle;whiteSpace=wrap;rounded=0;" vertex="1" parent="1">
          <mxGeometry x="290.5" y="2260" width="35" height="20" as="geometry" />
        </mxCell>
        <mxCell id="MgAOJkvai4jm7tvgy9-K-370" value="1" style="text;html=1;align=center;verticalAlign=middle;whiteSpace=wrap;rounded=0;" vertex="1" parent="1">
          <mxGeometry x="328" y="2260" width="35" height="20" as="geometry" />
        </mxCell>
        <mxCell id="MgAOJkvai4jm7tvgy9-K-371" value="" style="whiteSpace=wrap;html=1;aspect=fixed;" vertex="1" parent="1">
          <mxGeometry x="296" y="2338" width="60" height="60" as="geometry" />
        </mxCell>
        <mxCell id="MgAOJkvai4jm7tvgy9-K-372" value="0" style="text;html=1;align=center;verticalAlign=middle;whiteSpace=wrap;rounded=0;" vertex="1" parent="1">
          <mxGeometry x="290.5" y="2348" width="27.75" height="20" as="geometry" />
        </mxCell>
        <mxCell id="MgAOJkvai4jm7tvgy9-K-373" value="1" style="text;html=1;align=center;verticalAlign=middle;whiteSpace=wrap;rounded=0;" vertex="1" parent="1">
          <mxGeometry x="328" y="2348" width="35" height="20" as="geometry" />
        </mxCell>
        <mxCell id="MgAOJkvai4jm7tvgy9-K-374" value="0" style="text;html=1;align=center;verticalAlign=middle;whiteSpace=wrap;rounded=0;" vertex="1" parent="1">
          <mxGeometry x="290.5" y="2368" width="35" height="20" as="geometry" />
        </mxCell>
        <mxCell id="MgAOJkvai4jm7tvgy9-K-375" value="1" style="text;html=1;align=center;verticalAlign=middle;whiteSpace=wrap;rounded=0;" vertex="1" parent="1">
          <mxGeometry x="328" y="2368" width="35" height="20" as="geometry" />
        </mxCell>
        <mxCell id="MgAOJkvai4jm7tvgy9-K-376" value="" style="whiteSpace=wrap;html=1;aspect=fixed;" vertex="1" parent="1">
          <mxGeometry x="296.75" y="2458" width="60" height="60" as="geometry" />
        </mxCell>
        <mxCell id="MgAOJkvai4jm7tvgy9-K-377" value="0" style="text;html=1;align=center;verticalAlign=middle;whiteSpace=wrap;rounded=0;" vertex="1" parent="1">
          <mxGeometry x="291.25" y="2468" width="35" height="20" as="geometry" />
        </mxCell>
        <mxCell id="MgAOJkvai4jm7tvgy9-K-378" value="1" style="text;html=1;align=center;verticalAlign=middle;whiteSpace=wrap;rounded=0;" vertex="1" parent="1">
          <mxGeometry x="328.75" y="2468" width="35" height="20" as="geometry" />
        </mxCell>
        <mxCell id="MgAOJkvai4jm7tvgy9-K-379" value="0" style="text;html=1;align=center;verticalAlign=middle;whiteSpace=wrap;rounded=0;" vertex="1" parent="1">
          <mxGeometry x="291.25" y="2488" width="35" height="20" as="geometry" />
        </mxCell>
        <mxCell id="MgAOJkvai4jm7tvgy9-K-380" value="1" style="text;html=1;align=center;verticalAlign=middle;whiteSpace=wrap;rounded=0;" vertex="1" parent="1">
          <mxGeometry x="328.75" y="2488" width="35" height="20" as="geometry" />
        </mxCell>
        <mxCell id="MgAOJkvai4jm7tvgy9-K-381" value="" style="whiteSpace=wrap;html=1;aspect=fixed;" vertex="1" parent="1">
          <mxGeometry x="296" y="2588" width="60" height="60" as="geometry" />
        </mxCell>
        <mxCell id="MgAOJkvai4jm7tvgy9-K-382" value="0" style="text;html=1;align=center;verticalAlign=middle;whiteSpace=wrap;rounded=0;" vertex="1" parent="1">
          <mxGeometry x="290.5" y="2598" width="35" height="20" as="geometry" />
        </mxCell>
        <mxCell id="MgAOJkvai4jm7tvgy9-K-383" value="1" style="text;html=1;align=center;verticalAlign=middle;whiteSpace=wrap;rounded=0;" vertex="1" parent="1">
          <mxGeometry x="328" y="2598" width="35" height="20" as="geometry" />
        </mxCell>
        <mxCell id="MgAOJkvai4jm7tvgy9-K-384" value="0" style="text;html=1;align=center;verticalAlign=middle;whiteSpace=wrap;rounded=0;" vertex="1" parent="1">
          <mxGeometry x="290.5" y="2618" width="35" height="20" as="geometry" />
        </mxCell>
        <mxCell id="MgAOJkvai4jm7tvgy9-K-385" value="1" style="text;html=1;align=center;verticalAlign=middle;whiteSpace=wrap;rounded=0;" vertex="1" parent="1">
          <mxGeometry x="328" y="2618" width="35" height="20" as="geometry" />
        </mxCell>
        <mxCell id="MgAOJkvai4jm7tvgy9-K-386" value="" style="whiteSpace=wrap;html=1;aspect=fixed;" vertex="1" parent="1">
          <mxGeometry x="296.75" y="2708" width="60" height="60" as="geometry" />
        </mxCell>
        <mxCell id="MgAOJkvai4jm7tvgy9-K-387" value="0" style="text;html=1;align=center;verticalAlign=middle;whiteSpace=wrap;rounded=0;" vertex="1" parent="1">
          <mxGeometry x="291.25" y="2718" width="35" height="20" as="geometry" />
        </mxCell>
        <mxCell id="MgAOJkvai4jm7tvgy9-K-388" value="1" style="text;html=1;align=center;verticalAlign=middle;whiteSpace=wrap;rounded=0;" vertex="1" parent="1">
          <mxGeometry x="328.75" y="2718" width="35" height="20" as="geometry" />
        </mxCell>
        <mxCell id="MgAOJkvai4jm7tvgy9-K-389" value="0" style="text;html=1;align=center;verticalAlign=middle;whiteSpace=wrap;rounded=0;" vertex="1" parent="1">
          <mxGeometry x="291.25" y="2738" width="35" height="20" as="geometry" />
        </mxCell>
        <mxCell id="MgAOJkvai4jm7tvgy9-K-390" value="1" style="text;html=1;align=center;verticalAlign=middle;whiteSpace=wrap;rounded=0;" vertex="1" parent="1">
          <mxGeometry x="328.75" y="2738" width="35" height="20" as="geometry" />
        </mxCell>
        <mxCell id="MgAOJkvai4jm7tvgy9-K-391" value="" style="whiteSpace=wrap;html=1;aspect=fixed;" vertex="1" parent="1">
          <mxGeometry x="471.5" y="1860" width="60" height="60" as="geometry" />
        </mxCell>
        <mxCell id="MgAOJkvai4jm7tvgy9-K-392" value="0" style="text;html=1;align=center;verticalAlign=middle;whiteSpace=wrap;rounded=0;" vertex="1" parent="1">
          <mxGeometry x="466" y="1870" width="35" height="20" as="geometry" />
        </mxCell>
        <mxCell id="MgAOJkvai4jm7tvgy9-K-393" value="1" style="text;html=1;align=center;verticalAlign=middle;whiteSpace=wrap;rounded=0;" vertex="1" parent="1">
          <mxGeometry x="503.5" y="1870" width="35" height="20" as="geometry" />
        </mxCell>
        <mxCell id="MgAOJkvai4jm7tvgy9-K-394" value="0" style="text;html=1;align=center;verticalAlign=middle;whiteSpace=wrap;rounded=0;" vertex="1" parent="1">
          <mxGeometry x="466" y="1890" width="35" height="20" as="geometry" />
        </mxCell>
        <mxCell id="MgAOJkvai4jm7tvgy9-K-395" value="1" style="text;html=1;align=center;verticalAlign=middle;whiteSpace=wrap;rounded=0;" vertex="1" parent="1">
          <mxGeometry x="503.5" y="1890" width="35" height="20" as="geometry" />
        </mxCell>
        <mxCell id="MgAOJkvai4jm7tvgy9-K-396" value="" style="whiteSpace=wrap;html=1;aspect=fixed;" vertex="1" parent="1">
          <mxGeometry x="472.25" y="1980" width="60" height="60" as="geometry" />
        </mxCell>
        <mxCell id="MgAOJkvai4jm7tvgy9-K-397" value="0" style="text;html=1;align=center;verticalAlign=middle;whiteSpace=wrap;rounded=0;" vertex="1" parent="1">
          <mxGeometry x="466.75" y="1990" width="35" height="20" as="geometry" />
        </mxCell>
        <mxCell id="MgAOJkvai4jm7tvgy9-K-398" value="1" style="text;html=1;align=center;verticalAlign=middle;whiteSpace=wrap;rounded=0;" vertex="1" parent="1">
          <mxGeometry x="504.25" y="1990" width="35" height="20" as="geometry" />
        </mxCell>
        <mxCell id="MgAOJkvai4jm7tvgy9-K-399" value="0" style="text;html=1;align=center;verticalAlign=middle;whiteSpace=wrap;rounded=0;" vertex="1" parent="1">
          <mxGeometry x="466.75" y="2010" width="35" height="20" as="geometry" />
        </mxCell>
        <mxCell id="MgAOJkvai4jm7tvgy9-K-400" value="1" style="text;html=1;align=center;verticalAlign=middle;whiteSpace=wrap;rounded=0;" vertex="1" parent="1">
          <mxGeometry x="504.25" y="2010" width="35" height="20" as="geometry" />
        </mxCell>
        <mxCell id="MgAOJkvai4jm7tvgy9-K-401" value="" style="whiteSpace=wrap;html=1;aspect=fixed;" vertex="1" parent="1">
          <mxGeometry x="471.5" y="2110" width="60" height="60" as="geometry" />
        </mxCell>
        <mxCell id="MgAOJkvai4jm7tvgy9-K-402" value="0" style="text;html=1;align=center;verticalAlign=middle;whiteSpace=wrap;rounded=0;" vertex="1" parent="1">
          <mxGeometry x="466" y="2120" width="35" height="20" as="geometry" />
        </mxCell>
        <mxCell id="MgAOJkvai4jm7tvgy9-K-403" value="1" style="text;html=1;align=center;verticalAlign=middle;whiteSpace=wrap;rounded=0;" vertex="1" parent="1">
          <mxGeometry x="503.5" y="2120" width="35" height="20" as="geometry" />
        </mxCell>
        <mxCell id="MgAOJkvai4jm7tvgy9-K-404" value="0" style="text;html=1;align=center;verticalAlign=middle;whiteSpace=wrap;rounded=0;" vertex="1" parent="1">
          <mxGeometry x="466" y="2140" width="35" height="20" as="geometry" />
        </mxCell>
        <mxCell id="MgAOJkvai4jm7tvgy9-K-405" value="1" style="text;html=1;align=center;verticalAlign=middle;whiteSpace=wrap;rounded=0;" vertex="1" parent="1">
          <mxGeometry x="503.5" y="2140" width="35" height="20" as="geometry" />
        </mxCell>
        <mxCell id="MgAOJkvai4jm7tvgy9-K-406" value="" style="whiteSpace=wrap;html=1;aspect=fixed;" vertex="1" parent="1">
          <mxGeometry x="472.25" y="2230" width="60" height="60" as="geometry" />
        </mxCell>
        <mxCell id="MgAOJkvai4jm7tvgy9-K-407" value="0" style="text;html=1;align=center;verticalAlign=middle;whiteSpace=wrap;rounded=0;" vertex="1" parent="1">
          <mxGeometry x="466.75" y="2240" width="35" height="20" as="geometry" />
        </mxCell>
        <mxCell id="MgAOJkvai4jm7tvgy9-K-408" value="1" style="text;html=1;align=center;verticalAlign=middle;whiteSpace=wrap;rounded=0;" vertex="1" parent="1">
          <mxGeometry x="504.25" y="2240" width="35" height="20" as="geometry" />
        </mxCell>
        <mxCell id="MgAOJkvai4jm7tvgy9-K-409" value="0" style="text;html=1;align=center;verticalAlign=middle;whiteSpace=wrap;rounded=0;" vertex="1" parent="1">
          <mxGeometry x="466.75" y="2260" width="35" height="20" as="geometry" />
        </mxCell>
        <mxCell id="MgAOJkvai4jm7tvgy9-K-410" value="1" style="text;html=1;align=center;verticalAlign=middle;whiteSpace=wrap;rounded=0;" vertex="1" parent="1">
          <mxGeometry x="504.25" y="2260" width="35" height="20" as="geometry" />
        </mxCell>
        <mxCell id="MgAOJkvai4jm7tvgy9-K-411" value="" style="whiteSpace=wrap;html=1;aspect=fixed;" vertex="1" parent="1">
          <mxGeometry x="472.25" y="2338" width="60" height="60" as="geometry" />
        </mxCell>
        <mxCell id="MgAOJkvai4jm7tvgy9-K-412" value="0" style="text;html=1;align=center;verticalAlign=middle;whiteSpace=wrap;rounded=0;" vertex="1" parent="1">
          <mxGeometry x="466.75" y="2348" width="27.75" height="20" as="geometry" />
        </mxCell>
        <mxCell id="MgAOJkvai4jm7tvgy9-K-413" value="1" style="text;html=1;align=center;verticalAlign=middle;whiteSpace=wrap;rounded=0;" vertex="1" parent="1">
          <mxGeometry x="504.25" y="2348" width="35" height="20" as="geometry" />
        </mxCell>
        <mxCell id="MgAOJkvai4jm7tvgy9-K-414" value="0" style="text;html=1;align=center;verticalAlign=middle;whiteSpace=wrap;rounded=0;" vertex="1" parent="1">
          <mxGeometry x="466.75" y="2368" width="35" height="20" as="geometry" />
        </mxCell>
        <mxCell id="MgAOJkvai4jm7tvgy9-K-415" value="1" style="text;html=1;align=center;verticalAlign=middle;whiteSpace=wrap;rounded=0;" vertex="1" parent="1">
          <mxGeometry x="504.25" y="2368" width="35" height="20" as="geometry" />
        </mxCell>
        <mxCell id="MgAOJkvai4jm7tvgy9-K-416" value="" style="whiteSpace=wrap;html=1;aspect=fixed;" vertex="1" parent="1">
          <mxGeometry x="473" y="2458" width="60" height="60" as="geometry" />
        </mxCell>
        <mxCell id="MgAOJkvai4jm7tvgy9-K-417" value="0" style="text;html=1;align=center;verticalAlign=middle;whiteSpace=wrap;rounded=0;" vertex="1" parent="1">
          <mxGeometry x="467.5" y="2468" width="35" height="20" as="geometry" />
        </mxCell>
        <mxCell id="MgAOJkvai4jm7tvgy9-K-418" value="1" style="text;html=1;align=center;verticalAlign=middle;whiteSpace=wrap;rounded=0;" vertex="1" parent="1">
          <mxGeometry x="505" y="2468" width="35" height="20" as="geometry" />
        </mxCell>
        <mxCell id="MgAOJkvai4jm7tvgy9-K-419" value="0" style="text;html=1;align=center;verticalAlign=middle;whiteSpace=wrap;rounded=0;" vertex="1" parent="1">
          <mxGeometry x="467.5" y="2488" width="35" height="20" as="geometry" />
        </mxCell>
        <mxCell id="MgAOJkvai4jm7tvgy9-K-420" value="1" style="text;html=1;align=center;verticalAlign=middle;whiteSpace=wrap;rounded=0;" vertex="1" parent="1">
          <mxGeometry x="505" y="2488" width="35" height="20" as="geometry" />
        </mxCell>
        <mxCell id="MgAOJkvai4jm7tvgy9-K-421" value="" style="whiteSpace=wrap;html=1;aspect=fixed;" vertex="1" parent="1">
          <mxGeometry x="472.25" y="2588" width="60" height="60" as="geometry" />
        </mxCell>
        <mxCell id="MgAOJkvai4jm7tvgy9-K-422" value="0" style="text;html=1;align=center;verticalAlign=middle;whiteSpace=wrap;rounded=0;" vertex="1" parent="1">
          <mxGeometry x="466.75" y="2598" width="35" height="20" as="geometry" />
        </mxCell>
        <mxCell id="MgAOJkvai4jm7tvgy9-K-423" value="1" style="text;html=1;align=center;verticalAlign=middle;whiteSpace=wrap;rounded=0;" vertex="1" parent="1">
          <mxGeometry x="504.25" y="2598" width="35" height="20" as="geometry" />
        </mxCell>
        <mxCell id="MgAOJkvai4jm7tvgy9-K-424" value="0" style="text;html=1;align=center;verticalAlign=middle;whiteSpace=wrap;rounded=0;" vertex="1" parent="1">
          <mxGeometry x="466.75" y="2618" width="35" height="20" as="geometry" />
        </mxCell>
        <mxCell id="MgAOJkvai4jm7tvgy9-K-425" value="1" style="text;html=1;align=center;verticalAlign=middle;whiteSpace=wrap;rounded=0;" vertex="1" parent="1">
          <mxGeometry x="504.25" y="2618" width="35" height="20" as="geometry" />
        </mxCell>
        <mxCell id="MgAOJkvai4jm7tvgy9-K-426" value="" style="whiteSpace=wrap;html=1;aspect=fixed;" vertex="1" parent="1">
          <mxGeometry x="473" y="2708" width="60" height="60" as="geometry" />
        </mxCell>
        <mxCell id="MgAOJkvai4jm7tvgy9-K-427" value="0" style="text;html=1;align=center;verticalAlign=middle;whiteSpace=wrap;rounded=0;" vertex="1" parent="1">
          <mxGeometry x="467.5" y="2718" width="35" height="20" as="geometry" />
        </mxCell>
        <mxCell id="MgAOJkvai4jm7tvgy9-K-428" value="1" style="text;html=1;align=center;verticalAlign=middle;whiteSpace=wrap;rounded=0;" vertex="1" parent="1">
          <mxGeometry x="505" y="2718" width="35" height="20" as="geometry" />
        </mxCell>
        <mxCell id="MgAOJkvai4jm7tvgy9-K-429" value="0" style="text;html=1;align=center;verticalAlign=middle;whiteSpace=wrap;rounded=0;" vertex="1" parent="1">
          <mxGeometry x="467.5" y="2738" width="35" height="20" as="geometry" />
        </mxCell>
        <mxCell id="MgAOJkvai4jm7tvgy9-K-430" value="1" style="text;html=1;align=center;verticalAlign=middle;whiteSpace=wrap;rounded=0;" vertex="1" parent="1">
          <mxGeometry x="505" y="2738" width="35" height="20" as="geometry" />
        </mxCell>
        <mxCell id="MgAOJkvai4jm7tvgy9-K-431" value="" style="whiteSpace=wrap;html=1;aspect=fixed;" vertex="1" parent="1">
          <mxGeometry x="618.5" y="1860" width="60" height="60" as="geometry" />
        </mxCell>
        <mxCell id="MgAOJkvai4jm7tvgy9-K-432" value="0" style="text;html=1;align=center;verticalAlign=middle;whiteSpace=wrap;rounded=0;" vertex="1" parent="1">
          <mxGeometry x="613" y="1870" width="35" height="20" as="geometry" />
        </mxCell>
        <mxCell id="MgAOJkvai4jm7tvgy9-K-433" value="1" style="text;html=1;align=center;verticalAlign=middle;whiteSpace=wrap;rounded=0;" vertex="1" parent="1">
          <mxGeometry x="650.5" y="1870" width="35" height="20" as="geometry" />
        </mxCell>
        <mxCell id="MgAOJkvai4jm7tvgy9-K-434" value="0" style="text;html=1;align=center;verticalAlign=middle;whiteSpace=wrap;rounded=0;" vertex="1" parent="1">
          <mxGeometry x="613" y="1890" width="35" height="20" as="geometry" />
        </mxCell>
        <mxCell id="MgAOJkvai4jm7tvgy9-K-435" value="1" style="text;html=1;align=center;verticalAlign=middle;whiteSpace=wrap;rounded=0;" vertex="1" parent="1">
          <mxGeometry x="650.5" y="1890" width="35" height="20" as="geometry" />
        </mxCell>
        <mxCell id="MgAOJkvai4jm7tvgy9-K-436" value="" style="whiteSpace=wrap;html=1;aspect=fixed;" vertex="1" parent="1">
          <mxGeometry x="619.25" y="1980" width="60" height="60" as="geometry" />
        </mxCell>
        <mxCell id="MgAOJkvai4jm7tvgy9-K-437" value="0" style="text;html=1;align=center;verticalAlign=middle;whiteSpace=wrap;rounded=0;" vertex="1" parent="1">
          <mxGeometry x="613.75" y="1990" width="35" height="20" as="geometry" />
        </mxCell>
        <mxCell id="MgAOJkvai4jm7tvgy9-K-438" value="1" style="text;html=1;align=center;verticalAlign=middle;whiteSpace=wrap;rounded=0;" vertex="1" parent="1">
          <mxGeometry x="651.25" y="1990" width="35" height="20" as="geometry" />
        </mxCell>
        <mxCell id="MgAOJkvai4jm7tvgy9-K-439" value="0" style="text;html=1;align=center;verticalAlign=middle;whiteSpace=wrap;rounded=0;" vertex="1" parent="1">
          <mxGeometry x="613.75" y="2010" width="35" height="20" as="geometry" />
        </mxCell>
        <mxCell id="MgAOJkvai4jm7tvgy9-K-440" value="1" style="text;html=1;align=center;verticalAlign=middle;whiteSpace=wrap;rounded=0;" vertex="1" parent="1">
          <mxGeometry x="651.25" y="2010" width="35" height="20" as="geometry" />
        </mxCell>
        <mxCell id="MgAOJkvai4jm7tvgy9-K-441" value="" style="whiteSpace=wrap;html=1;aspect=fixed;" vertex="1" parent="1">
          <mxGeometry x="618.5" y="2110" width="60" height="60" as="geometry" />
        </mxCell>
        <mxCell id="MgAOJkvai4jm7tvgy9-K-442" value="0" style="text;html=1;align=center;verticalAlign=middle;whiteSpace=wrap;rounded=0;" vertex="1" parent="1">
          <mxGeometry x="613" y="2120" width="35" height="20" as="geometry" />
        </mxCell>
        <mxCell id="MgAOJkvai4jm7tvgy9-K-443" value="1" style="text;html=1;align=center;verticalAlign=middle;whiteSpace=wrap;rounded=0;" vertex="1" parent="1">
          <mxGeometry x="650.5" y="2120" width="35" height="20" as="geometry" />
        </mxCell>
        <mxCell id="MgAOJkvai4jm7tvgy9-K-444" value="0" style="text;html=1;align=center;verticalAlign=middle;whiteSpace=wrap;rounded=0;" vertex="1" parent="1">
          <mxGeometry x="613" y="2140" width="35" height="20" as="geometry" />
        </mxCell>
        <mxCell id="MgAOJkvai4jm7tvgy9-K-445" value="1" style="text;html=1;align=center;verticalAlign=middle;whiteSpace=wrap;rounded=0;" vertex="1" parent="1">
          <mxGeometry x="650.5" y="2140" width="35" height="20" as="geometry" />
        </mxCell>
        <mxCell id="MgAOJkvai4jm7tvgy9-K-446" value="" style="whiteSpace=wrap;html=1;aspect=fixed;" vertex="1" parent="1">
          <mxGeometry x="619.25" y="2230" width="60" height="60" as="geometry" />
        </mxCell>
        <mxCell id="MgAOJkvai4jm7tvgy9-K-447" value="0" style="text;html=1;align=center;verticalAlign=middle;whiteSpace=wrap;rounded=0;" vertex="1" parent="1">
          <mxGeometry x="613.75" y="2240" width="35" height="20" as="geometry" />
        </mxCell>
        <mxCell id="MgAOJkvai4jm7tvgy9-K-448" value="1" style="text;html=1;align=center;verticalAlign=middle;whiteSpace=wrap;rounded=0;" vertex="1" parent="1">
          <mxGeometry x="651.25" y="2240" width="35" height="20" as="geometry" />
        </mxCell>
        <mxCell id="MgAOJkvai4jm7tvgy9-K-449" value="0" style="text;html=1;align=center;verticalAlign=middle;whiteSpace=wrap;rounded=0;" vertex="1" parent="1">
          <mxGeometry x="613.75" y="2260" width="35" height="20" as="geometry" />
        </mxCell>
        <mxCell id="MgAOJkvai4jm7tvgy9-K-450" value="1" style="text;html=1;align=center;verticalAlign=middle;whiteSpace=wrap;rounded=0;" vertex="1" parent="1">
          <mxGeometry x="651.25" y="2260" width="35" height="20" as="geometry" />
        </mxCell>
        <mxCell id="MgAOJkvai4jm7tvgy9-K-451" value="" style="whiteSpace=wrap;html=1;aspect=fixed;" vertex="1" parent="1">
          <mxGeometry x="619.25" y="2338" width="60" height="60" as="geometry" />
        </mxCell>
        <mxCell id="MgAOJkvai4jm7tvgy9-K-452" value="0" style="text;html=1;align=center;verticalAlign=middle;whiteSpace=wrap;rounded=0;" vertex="1" parent="1">
          <mxGeometry x="613.75" y="2348" width="27.75" height="20" as="geometry" />
        </mxCell>
        <mxCell id="MgAOJkvai4jm7tvgy9-K-453" value="1" style="text;html=1;align=center;verticalAlign=middle;whiteSpace=wrap;rounded=0;" vertex="1" parent="1">
          <mxGeometry x="651.25" y="2348" width="35" height="20" as="geometry" />
        </mxCell>
        <mxCell id="MgAOJkvai4jm7tvgy9-K-454" value="0" style="text;html=1;align=center;verticalAlign=middle;whiteSpace=wrap;rounded=0;" vertex="1" parent="1">
          <mxGeometry x="613.75" y="2368" width="35" height="20" as="geometry" />
        </mxCell>
        <mxCell id="MgAOJkvai4jm7tvgy9-K-455" value="1" style="text;html=1;align=center;verticalAlign=middle;whiteSpace=wrap;rounded=0;" vertex="1" parent="1">
          <mxGeometry x="651.25" y="2368" width="35" height="20" as="geometry" />
        </mxCell>
        <mxCell id="MgAOJkvai4jm7tvgy9-K-456" value="" style="whiteSpace=wrap;html=1;aspect=fixed;" vertex="1" parent="1">
          <mxGeometry x="620" y="2458" width="60" height="60" as="geometry" />
        </mxCell>
        <mxCell id="MgAOJkvai4jm7tvgy9-K-457" value="0" style="text;html=1;align=center;verticalAlign=middle;whiteSpace=wrap;rounded=0;" vertex="1" parent="1">
          <mxGeometry x="614.5" y="2468" width="35" height="20" as="geometry" />
        </mxCell>
        <mxCell id="MgAOJkvai4jm7tvgy9-K-458" value="1" style="text;html=1;align=center;verticalAlign=middle;whiteSpace=wrap;rounded=0;" vertex="1" parent="1">
          <mxGeometry x="652" y="2468" width="35" height="20" as="geometry" />
        </mxCell>
        <mxCell id="MgAOJkvai4jm7tvgy9-K-459" value="0" style="text;html=1;align=center;verticalAlign=middle;whiteSpace=wrap;rounded=0;" vertex="1" parent="1">
          <mxGeometry x="614.5" y="2488" width="35" height="20" as="geometry" />
        </mxCell>
        <mxCell id="MgAOJkvai4jm7tvgy9-K-460" value="1" style="text;html=1;align=center;verticalAlign=middle;whiteSpace=wrap;rounded=0;" vertex="1" parent="1">
          <mxGeometry x="652" y="2488" width="35" height="20" as="geometry" />
        </mxCell>
        <mxCell id="MgAOJkvai4jm7tvgy9-K-461" value="" style="whiteSpace=wrap;html=1;aspect=fixed;" vertex="1" parent="1">
          <mxGeometry x="619.25" y="2588" width="60" height="60" as="geometry" />
        </mxCell>
        <mxCell id="MgAOJkvai4jm7tvgy9-K-462" value="0" style="text;html=1;align=center;verticalAlign=middle;whiteSpace=wrap;rounded=0;" vertex="1" parent="1">
          <mxGeometry x="613.75" y="2598" width="35" height="20" as="geometry" />
        </mxCell>
        <mxCell id="MgAOJkvai4jm7tvgy9-K-463" value="1" style="text;html=1;align=center;verticalAlign=middle;whiteSpace=wrap;rounded=0;" vertex="1" parent="1">
          <mxGeometry x="651.25" y="2598" width="35" height="20" as="geometry" />
        </mxCell>
        <mxCell id="MgAOJkvai4jm7tvgy9-K-464" value="0" style="text;html=1;align=center;verticalAlign=middle;whiteSpace=wrap;rounded=0;" vertex="1" parent="1">
          <mxGeometry x="613.75" y="2618" width="35" height="20" as="geometry" />
        </mxCell>
        <mxCell id="MgAOJkvai4jm7tvgy9-K-465" value="1" style="text;html=1;align=center;verticalAlign=middle;whiteSpace=wrap;rounded=0;" vertex="1" parent="1">
          <mxGeometry x="651.25" y="2618" width="35" height="20" as="geometry" />
        </mxCell>
        <mxCell id="MgAOJkvai4jm7tvgy9-K-466" value="" style="whiteSpace=wrap;html=1;aspect=fixed;" vertex="1" parent="1">
          <mxGeometry x="620" y="2708" width="60" height="60" as="geometry" />
        </mxCell>
        <mxCell id="MgAOJkvai4jm7tvgy9-K-467" value="0" style="text;html=1;align=center;verticalAlign=middle;whiteSpace=wrap;rounded=0;" vertex="1" parent="1">
          <mxGeometry x="614.5" y="2718" width="35" height="20" as="geometry" />
        </mxCell>
        <mxCell id="MgAOJkvai4jm7tvgy9-K-468" value="1" style="text;html=1;align=center;verticalAlign=middle;whiteSpace=wrap;rounded=0;" vertex="1" parent="1">
          <mxGeometry x="652" y="2718" width="35" height="20" as="geometry" />
        </mxCell>
        <mxCell id="MgAOJkvai4jm7tvgy9-K-469" value="0" style="text;html=1;align=center;verticalAlign=middle;whiteSpace=wrap;rounded=0;" vertex="1" parent="1">
          <mxGeometry x="614.5" y="2738" width="35" height="20" as="geometry" />
        </mxCell>
        <mxCell id="MgAOJkvai4jm7tvgy9-K-470" value="1" style="text;html=1;align=center;verticalAlign=middle;whiteSpace=wrap;rounded=0;" vertex="1" parent="1">
          <mxGeometry x="652" y="2738" width="35" height="20" as="geometry" />
        </mxCell>
        <mxCell id="MgAOJkvai4jm7tvgy9-K-471" value="" style="whiteSpace=wrap;html=1;aspect=fixed;" vertex="1" parent="1">
          <mxGeometry x="785.25" y="1860" width="60" height="60" as="geometry" />
        </mxCell>
        <mxCell id="MgAOJkvai4jm7tvgy9-K-472" value="0" style="text;html=1;align=center;verticalAlign=middle;whiteSpace=wrap;rounded=0;" vertex="1" parent="1">
          <mxGeometry x="779.75" y="1870" width="35" height="20" as="geometry" />
        </mxCell>
        <mxCell id="MgAOJkvai4jm7tvgy9-K-473" value="1" style="text;html=1;align=center;verticalAlign=middle;whiteSpace=wrap;rounded=0;" vertex="1" parent="1">
          <mxGeometry x="817.25" y="1870" width="35" height="20" as="geometry" />
        </mxCell>
        <mxCell id="MgAOJkvai4jm7tvgy9-K-474" value="0" style="text;html=1;align=center;verticalAlign=middle;whiteSpace=wrap;rounded=0;" vertex="1" parent="1">
          <mxGeometry x="779.75" y="1890" width="35" height="20" as="geometry" />
        </mxCell>
        <mxCell id="MgAOJkvai4jm7tvgy9-K-475" value="1" style="text;html=1;align=center;verticalAlign=middle;whiteSpace=wrap;rounded=0;" vertex="1" parent="1">
          <mxGeometry x="817.25" y="1890" width="35" height="20" as="geometry" />
        </mxCell>
        <mxCell id="MgAOJkvai4jm7tvgy9-K-476" value="" style="whiteSpace=wrap;html=1;aspect=fixed;" vertex="1" parent="1">
          <mxGeometry x="786" y="1980" width="60" height="60" as="geometry" />
        </mxCell>
        <mxCell id="MgAOJkvai4jm7tvgy9-K-477" value="0" style="text;html=1;align=center;verticalAlign=middle;whiteSpace=wrap;rounded=0;" vertex="1" parent="1">
          <mxGeometry x="780.5" y="1990" width="35" height="20" as="geometry" />
        </mxCell>
        <mxCell id="MgAOJkvai4jm7tvgy9-K-478" value="1" style="text;html=1;align=center;verticalAlign=middle;whiteSpace=wrap;rounded=0;" vertex="1" parent="1">
          <mxGeometry x="818" y="1990" width="35" height="20" as="geometry" />
        </mxCell>
        <mxCell id="MgAOJkvai4jm7tvgy9-K-479" value="0" style="text;html=1;align=center;verticalAlign=middle;whiteSpace=wrap;rounded=0;" vertex="1" parent="1">
          <mxGeometry x="780.5" y="2010" width="35" height="20" as="geometry" />
        </mxCell>
        <mxCell id="MgAOJkvai4jm7tvgy9-K-480" value="1" style="text;html=1;align=center;verticalAlign=middle;whiteSpace=wrap;rounded=0;" vertex="1" parent="1">
          <mxGeometry x="818" y="2010" width="35" height="20" as="geometry" />
        </mxCell>
        <mxCell id="MgAOJkvai4jm7tvgy9-K-481" value="" style="whiteSpace=wrap;html=1;aspect=fixed;" vertex="1" parent="1">
          <mxGeometry x="785.25" y="2110" width="60" height="60" as="geometry" />
        </mxCell>
        <mxCell id="MgAOJkvai4jm7tvgy9-K-482" value="0" style="text;html=1;align=center;verticalAlign=middle;whiteSpace=wrap;rounded=0;" vertex="1" parent="1">
          <mxGeometry x="779.75" y="2120" width="35" height="20" as="geometry" />
        </mxCell>
        <mxCell id="MgAOJkvai4jm7tvgy9-K-483" value="1" style="text;html=1;align=center;verticalAlign=middle;whiteSpace=wrap;rounded=0;" vertex="1" parent="1">
          <mxGeometry x="817.25" y="2120" width="35" height="20" as="geometry" />
        </mxCell>
        <mxCell id="MgAOJkvai4jm7tvgy9-K-484" value="0" style="text;html=1;align=center;verticalAlign=middle;whiteSpace=wrap;rounded=0;" vertex="1" parent="1">
          <mxGeometry x="779.75" y="2140" width="35" height="20" as="geometry" />
        </mxCell>
        <mxCell id="MgAOJkvai4jm7tvgy9-K-485" value="1" style="text;html=1;align=center;verticalAlign=middle;whiteSpace=wrap;rounded=0;" vertex="1" parent="1">
          <mxGeometry x="817.25" y="2140" width="35" height="20" as="geometry" />
        </mxCell>
        <mxCell id="MgAOJkvai4jm7tvgy9-K-486" value="" style="whiteSpace=wrap;html=1;aspect=fixed;" vertex="1" parent="1">
          <mxGeometry x="786" y="2230" width="60" height="60" as="geometry" />
        </mxCell>
        <mxCell id="MgAOJkvai4jm7tvgy9-K-487" value="0" style="text;html=1;align=center;verticalAlign=middle;whiteSpace=wrap;rounded=0;" vertex="1" parent="1">
          <mxGeometry x="780.5" y="2240" width="35" height="20" as="geometry" />
        </mxCell>
        <mxCell id="MgAOJkvai4jm7tvgy9-K-488" value="1" style="text;html=1;align=center;verticalAlign=middle;whiteSpace=wrap;rounded=0;" vertex="1" parent="1">
          <mxGeometry x="818" y="2240" width="35" height="20" as="geometry" />
        </mxCell>
        <mxCell id="MgAOJkvai4jm7tvgy9-K-489" value="0" style="text;html=1;align=center;verticalAlign=middle;whiteSpace=wrap;rounded=0;" vertex="1" parent="1">
          <mxGeometry x="780.5" y="2260" width="35" height="20" as="geometry" />
        </mxCell>
        <mxCell id="MgAOJkvai4jm7tvgy9-K-490" value="1" style="text;html=1;align=center;verticalAlign=middle;whiteSpace=wrap;rounded=0;" vertex="1" parent="1">
          <mxGeometry x="818" y="2260" width="35" height="20" as="geometry" />
        </mxCell>
        <mxCell id="MgAOJkvai4jm7tvgy9-K-491" value="" style="whiteSpace=wrap;html=1;aspect=fixed;" vertex="1" parent="1">
          <mxGeometry x="786" y="2338" width="60" height="60" as="geometry" />
        </mxCell>
        <mxCell id="MgAOJkvai4jm7tvgy9-K-492" value="0" style="text;html=1;align=center;verticalAlign=middle;whiteSpace=wrap;rounded=0;" vertex="1" parent="1">
          <mxGeometry x="780.5" y="2348" width="27.75" height="20" as="geometry" />
        </mxCell>
        <mxCell id="MgAOJkvai4jm7tvgy9-K-493" value="1" style="text;html=1;align=center;verticalAlign=middle;whiteSpace=wrap;rounded=0;" vertex="1" parent="1">
          <mxGeometry x="818" y="2348" width="35" height="20" as="geometry" />
        </mxCell>
        <mxCell id="MgAOJkvai4jm7tvgy9-K-494" value="0" style="text;html=1;align=center;verticalAlign=middle;whiteSpace=wrap;rounded=0;" vertex="1" parent="1">
          <mxGeometry x="780.5" y="2368" width="35" height="20" as="geometry" />
        </mxCell>
        <mxCell id="MgAOJkvai4jm7tvgy9-K-495" value="1" style="text;html=1;align=center;verticalAlign=middle;whiteSpace=wrap;rounded=0;" vertex="1" parent="1">
          <mxGeometry x="818" y="2368" width="35" height="20" as="geometry" />
        </mxCell>
        <mxCell id="MgAOJkvai4jm7tvgy9-K-496" value="" style="whiteSpace=wrap;html=1;aspect=fixed;" vertex="1" parent="1">
          <mxGeometry x="786.75" y="2458" width="60" height="60" as="geometry" />
        </mxCell>
        <mxCell id="MgAOJkvai4jm7tvgy9-K-497" value="0" style="text;html=1;align=center;verticalAlign=middle;whiteSpace=wrap;rounded=0;" vertex="1" parent="1">
          <mxGeometry x="781.25" y="2468" width="35" height="20" as="geometry" />
        </mxCell>
        <mxCell id="MgAOJkvai4jm7tvgy9-K-498" value="1" style="text;html=1;align=center;verticalAlign=middle;whiteSpace=wrap;rounded=0;" vertex="1" parent="1">
          <mxGeometry x="818.75" y="2468" width="35" height="20" as="geometry" />
        </mxCell>
        <mxCell id="MgAOJkvai4jm7tvgy9-K-499" value="0" style="text;html=1;align=center;verticalAlign=middle;whiteSpace=wrap;rounded=0;" vertex="1" parent="1">
          <mxGeometry x="781.25" y="2488" width="35" height="20" as="geometry" />
        </mxCell>
        <mxCell id="MgAOJkvai4jm7tvgy9-K-500" value="1" style="text;html=1;align=center;verticalAlign=middle;whiteSpace=wrap;rounded=0;" vertex="1" parent="1">
          <mxGeometry x="818.75" y="2488" width="35" height="20" as="geometry" />
        </mxCell>
        <mxCell id="MgAOJkvai4jm7tvgy9-K-501" value="" style="whiteSpace=wrap;html=1;aspect=fixed;" vertex="1" parent="1">
          <mxGeometry x="786" y="2588" width="60" height="60" as="geometry" />
        </mxCell>
        <mxCell id="MgAOJkvai4jm7tvgy9-K-502" value="0" style="text;html=1;align=center;verticalAlign=middle;whiteSpace=wrap;rounded=0;" vertex="1" parent="1">
          <mxGeometry x="780.5" y="2598" width="35" height="20" as="geometry" />
        </mxCell>
        <mxCell id="MgAOJkvai4jm7tvgy9-K-503" value="1" style="text;html=1;align=center;verticalAlign=middle;whiteSpace=wrap;rounded=0;" vertex="1" parent="1">
          <mxGeometry x="818" y="2598" width="35" height="20" as="geometry" />
        </mxCell>
        <mxCell id="MgAOJkvai4jm7tvgy9-K-504" value="0" style="text;html=1;align=center;verticalAlign=middle;whiteSpace=wrap;rounded=0;" vertex="1" parent="1">
          <mxGeometry x="780.5" y="2618" width="35" height="20" as="geometry" />
        </mxCell>
        <mxCell id="MgAOJkvai4jm7tvgy9-K-505" value="1" style="text;html=1;align=center;verticalAlign=middle;whiteSpace=wrap;rounded=0;" vertex="1" parent="1">
          <mxGeometry x="818" y="2618" width="35" height="20" as="geometry" />
        </mxCell>
        <mxCell id="MgAOJkvai4jm7tvgy9-K-506" value="" style="whiteSpace=wrap;html=1;aspect=fixed;" vertex="1" parent="1">
          <mxGeometry x="786.75" y="2708" width="60" height="60" as="geometry" />
        </mxCell>
        <mxCell id="MgAOJkvai4jm7tvgy9-K-507" value="0" style="text;html=1;align=center;verticalAlign=middle;whiteSpace=wrap;rounded=0;" vertex="1" parent="1">
          <mxGeometry x="781.25" y="2718" width="35" height="20" as="geometry" />
        </mxCell>
        <mxCell id="MgAOJkvai4jm7tvgy9-K-508" value="1" style="text;html=1;align=center;verticalAlign=middle;whiteSpace=wrap;rounded=0;" vertex="1" parent="1">
          <mxGeometry x="818.75" y="2718" width="35" height="20" as="geometry" />
        </mxCell>
        <mxCell id="MgAOJkvai4jm7tvgy9-K-509" value="0" style="text;html=1;align=center;verticalAlign=middle;whiteSpace=wrap;rounded=0;" vertex="1" parent="1">
          <mxGeometry x="781.25" y="2738" width="35" height="20" as="geometry" />
        </mxCell>
        <mxCell id="MgAOJkvai4jm7tvgy9-K-510" value="1" style="text;html=1;align=center;verticalAlign=middle;whiteSpace=wrap;rounded=0;" vertex="1" parent="1">
          <mxGeometry x="818.75" y="2738" width="35" height="20" as="geometry" />
        </mxCell>
        <mxCell id="MgAOJkvai4jm7tvgy9-K-511" value="" style="whiteSpace=wrap;html=1;aspect=fixed;" vertex="1" parent="1">
          <mxGeometry x="961.5" y="1860" width="60" height="60" as="geometry" />
        </mxCell>
        <mxCell id="MgAOJkvai4jm7tvgy9-K-512" value="0" style="text;html=1;align=center;verticalAlign=middle;whiteSpace=wrap;rounded=0;" vertex="1" parent="1">
          <mxGeometry x="956" y="1870" width="35" height="20" as="geometry" />
        </mxCell>
        <mxCell id="MgAOJkvai4jm7tvgy9-K-513" value="1" style="text;html=1;align=center;verticalAlign=middle;whiteSpace=wrap;rounded=0;" vertex="1" parent="1">
          <mxGeometry x="993.5" y="1870" width="35" height="20" as="geometry" />
        </mxCell>
        <mxCell id="MgAOJkvai4jm7tvgy9-K-514" value="0" style="text;html=1;align=center;verticalAlign=middle;whiteSpace=wrap;rounded=0;" vertex="1" parent="1">
          <mxGeometry x="956" y="1890" width="35" height="20" as="geometry" />
        </mxCell>
        <mxCell id="MgAOJkvai4jm7tvgy9-K-515" value="1" style="text;html=1;align=center;verticalAlign=middle;whiteSpace=wrap;rounded=0;" vertex="1" parent="1">
          <mxGeometry x="993.5" y="1890" width="35" height="20" as="geometry" />
        </mxCell>
        <mxCell id="MgAOJkvai4jm7tvgy9-K-516" value="" style="whiteSpace=wrap;html=1;aspect=fixed;" vertex="1" parent="1">
          <mxGeometry x="962.25" y="1980" width="60" height="60" as="geometry" />
        </mxCell>
        <mxCell id="MgAOJkvai4jm7tvgy9-K-517" value="0" style="text;html=1;align=center;verticalAlign=middle;whiteSpace=wrap;rounded=0;" vertex="1" parent="1">
          <mxGeometry x="956.75" y="1990" width="35" height="20" as="geometry" />
        </mxCell>
        <mxCell id="MgAOJkvai4jm7tvgy9-K-518" value="1" style="text;html=1;align=center;verticalAlign=middle;whiteSpace=wrap;rounded=0;" vertex="1" parent="1">
          <mxGeometry x="994.25" y="1990" width="35" height="20" as="geometry" />
        </mxCell>
        <mxCell id="MgAOJkvai4jm7tvgy9-K-519" value="0" style="text;html=1;align=center;verticalAlign=middle;whiteSpace=wrap;rounded=0;" vertex="1" parent="1">
          <mxGeometry x="956.75" y="2010" width="35" height="20" as="geometry" />
        </mxCell>
        <mxCell id="MgAOJkvai4jm7tvgy9-K-520" value="1" style="text;html=1;align=center;verticalAlign=middle;whiteSpace=wrap;rounded=0;" vertex="1" parent="1">
          <mxGeometry x="994.25" y="2010" width="35" height="20" as="geometry" />
        </mxCell>
        <mxCell id="MgAOJkvai4jm7tvgy9-K-521" value="" style="whiteSpace=wrap;html=1;aspect=fixed;" vertex="1" parent="1">
          <mxGeometry x="961.5" y="2110" width="60" height="60" as="geometry" />
        </mxCell>
        <mxCell id="MgAOJkvai4jm7tvgy9-K-522" value="0" style="text;html=1;align=center;verticalAlign=middle;whiteSpace=wrap;rounded=0;" vertex="1" parent="1">
          <mxGeometry x="956" y="2120" width="35" height="20" as="geometry" />
        </mxCell>
        <mxCell id="MgAOJkvai4jm7tvgy9-K-523" value="1" style="text;html=1;align=center;verticalAlign=middle;whiteSpace=wrap;rounded=0;" vertex="1" parent="1">
          <mxGeometry x="993.5" y="2120" width="35" height="20" as="geometry" />
        </mxCell>
        <mxCell id="MgAOJkvai4jm7tvgy9-K-524" value="0" style="text;html=1;align=center;verticalAlign=middle;whiteSpace=wrap;rounded=0;" vertex="1" parent="1">
          <mxGeometry x="956" y="2140" width="35" height="20" as="geometry" />
        </mxCell>
        <mxCell id="MgAOJkvai4jm7tvgy9-K-525" value="1" style="text;html=1;align=center;verticalAlign=middle;whiteSpace=wrap;rounded=0;" vertex="1" parent="1">
          <mxGeometry x="993.5" y="2140" width="35" height="20" as="geometry" />
        </mxCell>
        <mxCell id="MgAOJkvai4jm7tvgy9-K-526" value="" style="whiteSpace=wrap;html=1;aspect=fixed;" vertex="1" parent="1">
          <mxGeometry x="962.25" y="2230" width="60" height="60" as="geometry" />
        </mxCell>
        <mxCell id="MgAOJkvai4jm7tvgy9-K-527" value="0" style="text;html=1;align=center;verticalAlign=middle;whiteSpace=wrap;rounded=0;" vertex="1" parent="1">
          <mxGeometry x="956.75" y="2240" width="35" height="20" as="geometry" />
        </mxCell>
        <mxCell id="MgAOJkvai4jm7tvgy9-K-528" value="1" style="text;html=1;align=center;verticalAlign=middle;whiteSpace=wrap;rounded=0;" vertex="1" parent="1">
          <mxGeometry x="994.25" y="2240" width="35" height="20" as="geometry" />
        </mxCell>
        <mxCell id="MgAOJkvai4jm7tvgy9-K-529" value="0" style="text;html=1;align=center;verticalAlign=middle;whiteSpace=wrap;rounded=0;" vertex="1" parent="1">
          <mxGeometry x="956.75" y="2260" width="35" height="20" as="geometry" />
        </mxCell>
        <mxCell id="MgAOJkvai4jm7tvgy9-K-530" value="1" style="text;html=1;align=center;verticalAlign=middle;whiteSpace=wrap;rounded=0;" vertex="1" parent="1">
          <mxGeometry x="994.25" y="2260" width="35" height="20" as="geometry" />
        </mxCell>
        <mxCell id="MgAOJkvai4jm7tvgy9-K-531" value="" style="whiteSpace=wrap;html=1;aspect=fixed;" vertex="1" parent="1">
          <mxGeometry x="962.25" y="2338" width="60" height="60" as="geometry" />
        </mxCell>
        <mxCell id="MgAOJkvai4jm7tvgy9-K-532" value="0" style="text;html=1;align=center;verticalAlign=middle;whiteSpace=wrap;rounded=0;" vertex="1" parent="1">
          <mxGeometry x="956.75" y="2348" width="27.75" height="20" as="geometry" />
        </mxCell>
        <mxCell id="MgAOJkvai4jm7tvgy9-K-533" value="1" style="text;html=1;align=center;verticalAlign=middle;whiteSpace=wrap;rounded=0;" vertex="1" parent="1">
          <mxGeometry x="994.25" y="2348" width="35" height="20" as="geometry" />
        </mxCell>
        <mxCell id="MgAOJkvai4jm7tvgy9-K-534" value="0" style="text;html=1;align=center;verticalAlign=middle;whiteSpace=wrap;rounded=0;" vertex="1" parent="1">
          <mxGeometry x="956.75" y="2368" width="35" height="20" as="geometry" />
        </mxCell>
        <mxCell id="MgAOJkvai4jm7tvgy9-K-535" value="1" style="text;html=1;align=center;verticalAlign=middle;whiteSpace=wrap;rounded=0;" vertex="1" parent="1">
          <mxGeometry x="994.25" y="2368" width="35" height="20" as="geometry" />
        </mxCell>
        <mxCell id="MgAOJkvai4jm7tvgy9-K-536" value="" style="whiteSpace=wrap;html=1;aspect=fixed;" vertex="1" parent="1">
          <mxGeometry x="963" y="2458" width="60" height="60" as="geometry" />
        </mxCell>
        <mxCell id="MgAOJkvai4jm7tvgy9-K-537" value="0" style="text;html=1;align=center;verticalAlign=middle;whiteSpace=wrap;rounded=0;" vertex="1" parent="1">
          <mxGeometry x="957.5" y="2468" width="35" height="20" as="geometry" />
        </mxCell>
        <mxCell id="MgAOJkvai4jm7tvgy9-K-538" value="1" style="text;html=1;align=center;verticalAlign=middle;whiteSpace=wrap;rounded=0;" vertex="1" parent="1">
          <mxGeometry x="995" y="2468" width="35" height="20" as="geometry" />
        </mxCell>
        <mxCell id="MgAOJkvai4jm7tvgy9-K-539" value="0" style="text;html=1;align=center;verticalAlign=middle;whiteSpace=wrap;rounded=0;" vertex="1" parent="1">
          <mxGeometry x="957.5" y="2488" width="35" height="20" as="geometry" />
        </mxCell>
        <mxCell id="MgAOJkvai4jm7tvgy9-K-540" value="1" style="text;html=1;align=center;verticalAlign=middle;whiteSpace=wrap;rounded=0;" vertex="1" parent="1">
          <mxGeometry x="995" y="2488" width="35" height="20" as="geometry" />
        </mxCell>
        <mxCell id="MgAOJkvai4jm7tvgy9-K-541" value="" style="whiteSpace=wrap;html=1;aspect=fixed;" vertex="1" parent="1">
          <mxGeometry x="962.25" y="2588" width="60" height="60" as="geometry" />
        </mxCell>
        <mxCell id="MgAOJkvai4jm7tvgy9-K-542" value="0" style="text;html=1;align=center;verticalAlign=middle;whiteSpace=wrap;rounded=0;" vertex="1" parent="1">
          <mxGeometry x="956.75" y="2598" width="35" height="20" as="geometry" />
        </mxCell>
        <mxCell id="MgAOJkvai4jm7tvgy9-K-543" value="1" style="text;html=1;align=center;verticalAlign=middle;whiteSpace=wrap;rounded=0;" vertex="1" parent="1">
          <mxGeometry x="994.25" y="2598" width="35" height="20" as="geometry" />
        </mxCell>
        <mxCell id="MgAOJkvai4jm7tvgy9-K-544" value="0" style="text;html=1;align=center;verticalAlign=middle;whiteSpace=wrap;rounded=0;" vertex="1" parent="1">
          <mxGeometry x="956.75" y="2618" width="35" height="20" as="geometry" />
        </mxCell>
        <mxCell id="MgAOJkvai4jm7tvgy9-K-545" value="1" style="text;html=1;align=center;verticalAlign=middle;whiteSpace=wrap;rounded=0;" vertex="1" parent="1">
          <mxGeometry x="994.25" y="2618" width="35" height="20" as="geometry" />
        </mxCell>
        <mxCell id="MgAOJkvai4jm7tvgy9-K-546" value="" style="whiteSpace=wrap;html=1;aspect=fixed;" vertex="1" parent="1">
          <mxGeometry x="963" y="2708" width="60" height="60" as="geometry" />
        </mxCell>
        <mxCell id="MgAOJkvai4jm7tvgy9-K-547" value="0" style="text;html=1;align=center;verticalAlign=middle;whiteSpace=wrap;rounded=0;" vertex="1" parent="1">
          <mxGeometry x="957.5" y="2718" width="35" height="20" as="geometry" />
        </mxCell>
        <mxCell id="MgAOJkvai4jm7tvgy9-K-548" value="1" style="text;html=1;align=center;verticalAlign=middle;whiteSpace=wrap;rounded=0;" vertex="1" parent="1">
          <mxGeometry x="995" y="2718" width="35" height="20" as="geometry" />
        </mxCell>
        <mxCell id="MgAOJkvai4jm7tvgy9-K-549" value="0" style="text;html=1;align=center;verticalAlign=middle;whiteSpace=wrap;rounded=0;" vertex="1" parent="1">
          <mxGeometry x="957.5" y="2738" width="35" height="20" as="geometry" />
        </mxCell>
        <mxCell id="MgAOJkvai4jm7tvgy9-K-550" value="1" style="text;html=1;align=center;verticalAlign=middle;whiteSpace=wrap;rounded=0;" vertex="1" parent="1">
          <mxGeometry x="995" y="2738" width="35" height="20" as="geometry" />
        </mxCell>
        <mxCell id="MgAOJkvai4jm7tvgy9-K-552" value="" style="endArrow=none;html=1;rounded=0;" edge="1" parent="1">
          <mxGeometry width="50" height="50" relative="1" as="geometry">
            <mxPoint x="13.75" y="1880" as="sourcePoint" />
            <mxPoint x="130" y="1880" as="targetPoint" />
          </mxGeometry>
        </mxCell>
        <mxCell id="MgAOJkvai4jm7tvgy9-K-554" value="" style="endArrow=none;html=1;rounded=0;" edge="1" parent="1">
          <mxGeometry width="50" height="50" relative="1" as="geometry">
            <mxPoint x="12.25" y="1999.5" as="sourcePoint" />
            <mxPoint x="130" y="1900" as="targetPoint" />
            <Array as="points">
              <mxPoint x="40" y="1900" />
            </Array>
          </mxGeometry>
        </mxCell>
        <mxCell id="MgAOJkvai4jm7tvgy9-K-555" value="" style="endArrow=none;html=1;rounded=0;" edge="1" parent="1">
          <mxGeometry width="50" height="50" relative="1" as="geometry">
            <mxPoint x="13" y="2129.5" as="sourcePoint" />
            <mxPoint x="130" y="1995" as="targetPoint" />
            <Array as="points">
              <mxPoint x="40" y="1995" />
            </Array>
          </mxGeometry>
        </mxCell>
        <mxCell id="MgAOJkvai4jm7tvgy9-K-556" value="" style="endArrow=none;html=1;rounded=0;entryX=0;entryY=0.75;entryDx=0;entryDy=0;" edge="1" parent="1" target="MgAOJkvai4jm7tvgy9-K-316">
          <mxGeometry width="50" height="50" relative="1" as="geometry">
            <mxPoint x="12.25" y="2249.5" as="sourcePoint" />
            <mxPoint x="128.5" y="2249.5" as="targetPoint" />
            <Array as="points">
              <mxPoint x="40" y="2025" />
            </Array>
          </mxGeometry>
        </mxCell>
        <mxCell id="MgAOJkvai4jm7tvgy9-K-557" value="" style="endArrow=none;html=1;rounded=0;entryX=0;entryY=0.25;entryDx=0;entryDy=0;" edge="1" parent="1" target="MgAOJkvai4jm7tvgy9-K-321">
          <mxGeometry width="50" height="50" relative="1" as="geometry">
            <mxPoint x="12.25" y="2357.5" as="sourcePoint" />
            <mxPoint x="128.5" y="2357.5" as="targetPoint" />
            <Array as="points">
              <mxPoint x="40" y="2125" />
            </Array>
          </mxGeometry>
        </mxCell>
        <mxCell id="MgAOJkvai4jm7tvgy9-K-558" value="" style="endArrow=none;html=1;rounded=0;" edge="1" parent="1">
          <mxGeometry width="50" height="50" relative="1" as="geometry">
            <mxPoint x="13.75" y="2477.5" as="sourcePoint" />
            <mxPoint x="130" y="2150" as="targetPoint" />
            <Array as="points">
              <mxPoint x="50" y="2150" />
            </Array>
          </mxGeometry>
        </mxCell>
        <mxCell id="MgAOJkvai4jm7tvgy9-K-559" value="" style="endArrow=none;html=1;rounded=0;entryX=0;entryY=0.25;entryDx=0;entryDy=0;" edge="1" parent="1" target="MgAOJkvai4jm7tvgy9-K-326">
          <mxGeometry width="50" height="50" relative="1" as="geometry">
            <mxPoint x="13.75" y="2607.5" as="sourcePoint" />
            <mxPoint x="130" y="2607.5" as="targetPoint" />
            <Array as="points">
              <mxPoint x="50" y="2245" />
            </Array>
          </mxGeometry>
        </mxCell>
        <mxCell id="MgAOJkvai4jm7tvgy9-K-560" value="" style="endArrow=none;html=1;rounded=0;" edge="1" parent="1">
          <mxGeometry width="50" height="50" relative="1" as="geometry">
            <mxPoint x="13.75" y="2727.5" as="sourcePoint" />
            <mxPoint x="130" y="2270" as="targetPoint" />
            <Array as="points">
              <mxPoint x="60" y="2270" />
            </Array>
          </mxGeometry>
        </mxCell>
        <mxCell id="MgAOJkvai4jm7tvgy9-K-561" value="" style="endArrow=none;html=1;rounded=0;" edge="1" parent="1">
          <mxGeometry width="50" height="50" relative="1" as="geometry">
            <mxPoint x="10" y="1900" as="sourcePoint" />
            <mxPoint x="130" y="2358" as="targetPoint" />
            <Array as="points">
              <mxPoint x="100" y="2358" />
            </Array>
          </mxGeometry>
        </mxCell>
        <mxCell id="MgAOJkvai4jm7tvgy9-K-562" value="" style="endArrow=none;html=1;rounded=0;entryX=0.25;entryY=1;entryDx=0;entryDy=0;" edge="1" parent="1" target="MgAOJkvai4jm7tvgy9-K-334">
          <mxGeometry width="50" height="50" relative="1" as="geometry">
            <mxPoint x="10" y="2030" as="sourcePoint" />
            <mxPoint x="60" y="1980" as="targetPoint" />
            <Array as="points">
              <mxPoint x="90" y="2388" />
            </Array>
          </mxGeometry>
        </mxCell>
        <mxCell id="MgAOJkvai4jm7tvgy9-K-563" value="" style="endArrow=none;html=1;rounded=0;" edge="1" parent="1">
          <mxGeometry width="50" height="50" relative="1" as="geometry">
            <mxPoint x="10" y="2150" as="sourcePoint" />
            <mxPoint x="130" y="2478" as="targetPoint" />
            <Array as="points">
              <mxPoint x="100" y="2478" />
            </Array>
          </mxGeometry>
        </mxCell>
        <mxCell id="MgAOJkvai4jm7tvgy9-K-564" value="" style="endArrow=none;html=1;rounded=0;" edge="1" parent="1">
          <mxGeometry width="50" height="50" relative="1" as="geometry">
            <mxPoint x="10" y="2270" as="sourcePoint" />
            <mxPoint x="130" y="2500" as="targetPoint" />
            <Array as="points">
              <mxPoint x="90" y="2500" />
            </Array>
          </mxGeometry>
        </mxCell>
        <mxCell id="MgAOJkvai4jm7tvgy9-K-565" value="" style="endArrow=none;html=1;rounded=0;" edge="1" parent="1">
          <mxGeometry width="50" height="50" relative="1" as="geometry">
            <mxPoint x="10" y="2380" as="sourcePoint" />
            <mxPoint x="130" y="2610" as="targetPoint" />
            <Array as="points">
              <mxPoint x="100" y="2610" />
            </Array>
          </mxGeometry>
        </mxCell>
        <mxCell id="MgAOJkvai4jm7tvgy9-K-566" value="" style="endArrow=none;html=1;rounded=0;" edge="1" parent="1">
          <mxGeometry width="50" height="50" relative="1" as="geometry">
            <mxPoint x="10" y="2500" as="sourcePoint" />
            <mxPoint x="130" y="2633" as="targetPoint" />
            <Array as="points">
              <mxPoint x="100" y="2633" />
            </Array>
          </mxGeometry>
        </mxCell>
        <mxCell id="MgAOJkvai4jm7tvgy9-K-567" value="" style="endArrow=none;html=1;rounded=0;" edge="1" parent="1">
          <mxGeometry width="50" height="50" relative="1" as="geometry">
            <mxPoint x="10" y="2630" as="sourcePoint" />
            <mxPoint x="130" y="2728" as="targetPoint" />
          </mxGeometry>
        </mxCell>
        <mxCell id="MgAOJkvai4jm7tvgy9-K-568" value="" style="endArrow=none;html=1;rounded=0;" edge="1" parent="1">
          <mxGeometry width="50" height="50" relative="1" as="geometry">
            <mxPoint x="10" y="2750" as="sourcePoint" />
            <mxPoint x="130" y="2750" as="targetPoint" />
          </mxGeometry>
        </mxCell>
        <mxCell id="MgAOJkvai4jm7tvgy9-K-569" value="" style="endArrow=none;html=1;rounded=0;entryX=0.25;entryY=0;entryDx=0;entryDy=0;" edge="1" parent="1" target="MgAOJkvai4jm7tvgy9-K-234">
          <mxGeometry width="50" height="50" relative="1" as="geometry">
            <mxPoint x="-90" y="1890" as="sourcePoint" />
            <mxPoint x="-50" y="1890" as="targetPoint" />
          </mxGeometry>
        </mxCell>
        <mxCell id="MgAOJkvai4jm7tvgy9-K-570" value="" style="endArrow=none;html=1;rounded=0;entryX=0.25;entryY=0;entryDx=0;entryDy=0;" edge="1" parent="1" target="MgAOJkvai4jm7tvgy9-K-254">
          <mxGeometry width="50" height="50" relative="1" as="geometry">
            <mxPoint x="-90" y="2010" as="sourcePoint" />
            <mxPoint x="-50" y="2010" as="targetPoint" />
          </mxGeometry>
        </mxCell>
        <mxCell id="MgAOJkvai4jm7tvgy9-K-571" value="" style="endArrow=none;html=1;rounded=0;" edge="1" parent="1">
          <mxGeometry width="50" height="50" relative="1" as="geometry">
            <mxPoint x="-90" y="2140" as="sourcePoint" />
            <mxPoint x="-50" y="2140" as="targetPoint" />
          </mxGeometry>
        </mxCell>
        <mxCell id="MgAOJkvai4jm7tvgy9-K-572" value="" style="endArrow=none;html=1;rounded=0;" edge="1" parent="1">
          <mxGeometry width="50" height="50" relative="1" as="geometry">
            <mxPoint x="-90" y="2260" as="sourcePoint" />
            <mxPoint x="-50" y="2260" as="targetPoint" />
          </mxGeometry>
        </mxCell>
        <mxCell id="MgAOJkvai4jm7tvgy9-K-573" value="" style="endArrow=none;html=1;rounded=0;" edge="1" parent="1">
          <mxGeometry width="50" height="50" relative="1" as="geometry">
            <mxPoint x="-90" y="2370" as="sourcePoint" />
            <mxPoint x="-50" y="2370" as="targetPoint" />
          </mxGeometry>
        </mxCell>
        <mxCell id="MgAOJkvai4jm7tvgy9-K-574" value="" style="endArrow=none;html=1;rounded=0;" edge="1" parent="1">
          <mxGeometry width="50" height="50" relative="1" as="geometry">
            <mxPoint x="-90" y="2490" as="sourcePoint" />
            <mxPoint x="-50" y="2490" as="targetPoint" />
          </mxGeometry>
        </mxCell>
        <mxCell id="MgAOJkvai4jm7tvgy9-K-575" value="" style="endArrow=none;html=1;rounded=0;" edge="1" parent="1">
          <mxGeometry width="50" height="50" relative="1" as="geometry">
            <mxPoint x="-90" y="2620" as="sourcePoint" />
            <mxPoint x="-50" y="2620" as="targetPoint" />
          </mxGeometry>
        </mxCell>
        <mxCell id="MgAOJkvai4jm7tvgy9-K-576" value="" style="endArrow=none;html=1;rounded=0;entryX=0.25;entryY=0;entryDx=0;entryDy=0;" edge="1" parent="1" target="MgAOJkvai4jm7tvgy9-K-309">
          <mxGeometry width="50" height="50" relative="1" as="geometry">
            <mxPoint x="-90" y="2738" as="sourcePoint" />
            <mxPoint x="-50" y="2730" as="targetPoint" />
          </mxGeometry>
        </mxCell>
        <mxCell id="MgAOJkvai4jm7tvgy9-K-577" value="" style="endArrow=none;html=1;rounded=0;" edge="1" parent="1">
          <mxGeometry width="50" height="50" relative="1" as="geometry">
            <mxPoint x="190" y="1880" as="sourcePoint" />
            <mxPoint x="300" y="1880" as="targetPoint" />
          </mxGeometry>
        </mxCell>
        <mxCell id="MgAOJkvai4jm7tvgy9-K-578" value="" style="endArrow=none;html=1;rounded=0;" edge="1" parent="1">
          <mxGeometry width="50" height="50" relative="1" as="geometry">
            <mxPoint x="190" y="2000" as="sourcePoint" />
            <mxPoint x="300" y="1900" as="targetPoint" />
          </mxGeometry>
        </mxCell>
        <mxCell id="MgAOJkvai4jm7tvgy9-K-579" value="" style="endArrow=none;html=1;rounded=0;" edge="1" parent="1">
          <mxGeometry width="50" height="50" relative="1" as="geometry">
            <mxPoint x="190" y="1900" as="sourcePoint" />
            <mxPoint x="300" y="2130" as="targetPoint" />
          </mxGeometry>
        </mxCell>
        <mxCell id="MgAOJkvai4jm7tvgy9-K-580" value="" style="endArrow=none;html=1;rounded=0;" edge="1" parent="1">
          <mxGeometry width="50" height="50" relative="1" as="geometry">
            <mxPoint x="190" y="2020" as="sourcePoint" />
            <mxPoint x="300" y="2150" as="targetPoint" />
          </mxGeometry>
        </mxCell>
        <mxCell id="MgAOJkvai4jm7tvgy9-K-581" value="" style="endArrow=none;html=1;rounded=0;" edge="1" parent="1">
          <mxGeometry width="50" height="50" relative="1" as="geometry">
            <mxPoint x="190" y="2130" as="sourcePoint" />
            <mxPoint x="300" y="2000" as="targetPoint" />
          </mxGeometry>
        </mxCell>
        <mxCell id="MgAOJkvai4jm7tvgy9-K-583" value="" style="endArrow=none;html=1;rounded=0;entryX=0;entryY=0.25;entryDx=0;entryDy=0;" edge="1" parent="1" target="MgAOJkvai4jm7tvgy9-K-366">
          <mxGeometry width="50" height="50" relative="1" as="geometry">
            <mxPoint x="190" y="2160" as="sourcePoint" />
            <mxPoint x="240" y="2110" as="targetPoint" />
          </mxGeometry>
        </mxCell>
        <mxCell id="MgAOJkvai4jm7tvgy9-K-584" value="" style="endArrow=none;html=1;rounded=0;entryX=0.271;entryY=0.5;entryDx=0;entryDy=0;entryPerimeter=0;" edge="1" parent="1" target="MgAOJkvai4jm7tvgy9-K-359">
          <mxGeometry width="50" height="50" relative="1" as="geometry">
            <mxPoint x="189.25" y="2250" as="sourcePoint" />
            <mxPoint x="239.25" y="2200" as="targetPoint" />
          </mxGeometry>
        </mxCell>
        <mxCell id="MgAOJkvai4jm7tvgy9-K-585" value="" style="endArrow=none;html=1;rounded=0;" edge="1" parent="1">
          <mxGeometry width="50" height="50" relative="1" as="geometry">
            <mxPoint x="190" y="2270" as="sourcePoint" />
            <mxPoint x="300" y="2270" as="targetPoint" />
          </mxGeometry>
        </mxCell>
      </root>
    </mxGraphModel>
  </diagram>
</mxfile>
